<svg width="2130.48125px" height="261.2px" xmlns="http://www.w3.org/2000/svg" viewBox="-815.2406249999999 -55.599999999999994 2130.48125 261.2" style="background: rgb(247, 247, 247);" preserveAspectRatio="xMidYMid"><defs><linearGradient id="editing-outline-gradient" x1="-0.41354545764260087" x2="1.4135454576426008" y1="0.09326335692419985" y2="0.9067366430758002"><stop offset="0" stop-color="#545454"></stop><stop offset="1" stop-color="#141414"></stop></linearGradient><filter id="editing-outline" x="-100%" y="-100%" width="300%" height="300%"><feMorphology in="SourceGraphic" operator="dilate" radius="1" result="outline"></feMorphology><feComposite operator="out" in="outline" in2="SourceAlpha"></feComposite></filter></defs><g filter="url(#editing-outline)"><g transform="translate(-527.0449438095093, 101.56999683380127)"><path d="M11.73-20.91L11.73-20.91L11.73-18.77L38.64-18.77L38.64-20.91L38.64-20.91Q38.64-22.77 38.33-24.36L38.33-24.36L38.33-24.36Q38.02-25.94 37.54-27.32L37.54-27.32L32.78-38.57L32.78-38.57Q32.02-40.37 31.19-41.57L31.19-41.57L31.19-41.57Q30.36-42.78 28.43-42.78L28.43-42.78L21.67-42.78L21.67-42.78Q19.60-42.78 18.77-41.57L18.77-41.57L18.77-41.57Q17.94-40.37 17.25-38.64L17.25-38.64L12.83-27.32L12.83-27.32Q12.35-25.94 12.04-24.36L12.04-24.36L12.04-24.36Q11.73-22.77 11.73-20.91ZM19.53-24.70L22.77-35.19L22.77-35.19Q23.05-35.81 23.36-36.09L23.36-36.09L23.36-36.09Q23.67-36.36 24.08-36.36L24.08-36.36L25.81-36.36L25.81-36.36Q26.22-36.36 26.53-36.09L26.53-36.09L26.53-36.09Q26.84-35.81 27.12-35.19L27.12-35.19L30.36-24.70L19.53-24.70ZM29.39-25.39L26.43-34.98L26.50-34.91L26.50-34.91Q26.36-35.19 26.22-35.43L26.22-35.43L26.22-35.43Q26.08-35.67 25.81-35.67L25.81-35.67L24.08-35.67L24.08-35.67Q23.81-35.67 23.67-35.43L23.67-35.43L23.67-35.43Q23.53-35.19 23.39-34.91L23.39-34.91L23.46-34.98L20.49-25.39L29.39-25.39ZM39.33-6.21L38.64-6.21L38.64-18.08L11.73-18.08L11.73-6.21L11.04-6.21L11.04-20.91L11.04-20.91Q11.04-22.84 11.35-24.46L11.35-24.46L11.35-24.46Q11.66-26.08 12.21-27.60L12.21-27.60L16.63-38.92L16.63-38.92Q17.39-40.85 18.35-42.16L18.35-42.16L18.35-42.16Q19.32-43.47 21.67-43.47L21.67-43.47L28.43-43.47L28.43-43.47Q30.71-43.47 31.64-42.16L31.64-42.16L31.64-42.16Q32.57-40.85 33.40-38.85L33.40-38.85L38.16-27.60L38.16-27.60Q38.71-26.08 39.02-24.46L39.02-24.46L39.02-24.46Q39.33-22.84 39.33-20.91L39.33-20.91L39.33-6.21ZM18.84-2.48L18.84-2.48L18.84-12.14L31.05-12.14L31.05-2.48L31.05-2.48Q31.05-1.17 31.71-0.59L31.71-0.59L31.71-0.59Q32.36 0 33.74 0L33.74 0L44.16 0L44.16 0Q45.47 0 46.06-0.59L46.06-0.59L46.06-0.59Q46.64-1.17 46.64-2.48L46.64-2.48L46.64-20.70L46.64-20.70Q46.64-22.77 45.99-25.46L45.99-25.46L45.99-25.46Q45.33-28.15 43.95-31.74L43.95-31.74L37.95-47.40L37.95-47.40Q37.54-48.58 36.67-49.13L36.67-49.13L36.67-49.13Q35.81-49.68 34.50-49.68L34.50-49.68L15.94-49.68L15.94-49.68Q14.56-49.68 13.70-49.13L13.70-49.13L13.70-49.13Q12.83-48.58 12.42-47.40L12.42-47.40L6.42-31.74L6.42-31.74Q5.04-28.15 4.38-25.46L4.38-25.46L4.38-25.46Q3.73-22.77 3.73-20.70L3.73-20.70L3.73-2.48L3.73-2.48Q3.73-1.17 4.31-0.59L4.31-0.59L4.31-0.59Q4.90 0 6.21 0L6.21 0L16.35 0L16.35 0Q17.66 0 18.25-0.59L18.25-0.59L18.25-0.59Q18.84-1.17 18.84-2.48ZM16.35 0.69L6.21 0.69L6.21 0.69Q4.55 0.69 3.80-0.07L3.80-0.07L3.80-0.07Q3.04-0.83 3.04-2.48L3.04-2.48L3.04-20.70L3.04-20.70Q3.04-22.84 3.69-25.56L3.69-25.56L3.69-25.56Q4.35-28.29 5.80-32.02L5.80-32.02L11.80-47.61L11.80-47.61Q12.28-49.06 13.28-49.71L13.28-49.71L13.28-49.71Q14.28-50.37 15.94-50.37L15.94-50.37L34.50-50.37L34.50-50.37Q36.09-50.37 37.09-49.71L37.09-49.71L37.09-49.71Q38.09-49.06 38.57-47.68L38.57-47.68L44.57-32.02L44.57-32.02Q46.02-28.29 46.68-25.56L46.68-25.56L46.68-25.56Q47.33-22.84 47.33-20.70L47.33-20.70L47.33-2.48L47.33-2.48Q47.33-0.83 46.58-0.07L46.58-0.07L46.58-0.07Q45.82 0.69 44.16 0.69L44.16 0.69L33.74 0.69L33.74 0.69Q32.02 0.69 31.19-0.10L31.19-0.10L31.19-0.10Q30.36-0.90 30.36-2.48L30.36-2.48L30.36-11.45L19.53-11.45L19.53-2.48L19.53-2.48Q19.53-0.83 18.77-0.07L18.77-0.07L18.77-0.07Q18.01 0.69 16.35 0.69L16.35 0.69ZM93.08 0.69L71.35 0.69L71.35 0.69Q62.31 0.69 57.99-2.97L57.99-2.97L57.99-2.97Q53.68-6.62 53.68-14.08L53.68-14.08L53.68-35.60L53.68-35.60Q53.68-43.06 57.99-46.71L57.99-46.71L57.99-46.71Q62.31-50.37 71.35-50.37L71.35-50.37L88.60-50.37L88.60-50.37Q90.25-50.37 91.01-49.61L91.01-49.61L91.01-49.61Q91.77-48.85 91.77-47.20L91.77-47.20L91.77-38.85L91.77-38.85Q91.77-37.19 91.01-36.43L91.01-36.43L91.01-36.43Q90.25-35.67 88.60-35.67L88.60-35.67L74.24-35.67L74.24-35.67Q72.52-35.67 71.62-35.02L71.62-35.02L71.62-35.02Q70.73-34.36 70.73-32.91L70.73-32.91L70.73-16.42L70.73-16.42Q70.73-15.04 71.31-14.39L71.31-14.39L71.31-14.39Q71.90-13.73 73.21-13.73L73.21-13.73L79.21-13.73L79.21-23.81L79.21-23.81Q79.21-25.46 79.97-26.22L79.97-26.22L79.97-26.22Q80.73-26.98 82.39-26.98L82.39-26.98L93.08-26.98L93.08-26.98Q94.74-26.98 95.50-26.22L95.50-26.22L95.50-26.22Q96.26-25.46 96.26-23.81L96.26-23.81L96.26-2.48L96.26-2.48Q96.26-0.83 95.50-0.07L95.50-0.07L95.50-0.07Q94.74 0.69 93.08 0.69L93.08 0.69ZM71.35 0L93.08 0L93.08 0Q94.39 0 94.98-0.59L94.98-0.59L94.98-0.59Q95.56-1.17 95.56-2.48L95.56-2.48L95.56-23.81L95.56-23.81Q95.56-25.12 94.98-25.70L94.98-25.70L94.98-25.70Q94.39-26.29 93.08-26.29L93.08-26.29L82.39-26.29L82.39-26.29Q81.08-26.29 80.49-25.70L80.49-25.70L80.49-25.70Q79.90-25.12 79.90-23.81L79.90-23.81L79.90-13.04L73.21-13.04L73.21-13.04Q71.62-13.04 70.83-13.87L70.83-13.87L70.83-13.87Q70.04-14.70 70.04-16.42L70.04-16.42L70.04-32.91L70.04-32.91Q70.04-34.64 71.07-35.50L71.07-35.50L71.07-35.50Q72.11-36.36 74.24-36.36L74.24-36.36L88.60-36.36L88.60-36.36Q89.91-36.36 90.49-36.95L90.49-36.95L90.49-36.95Q91.08-37.54 91.08-38.85L91.08-38.85L91.08-47.20L91.08-47.20Q91.08-48.51 90.49-49.09L90.49-49.09L90.49-49.09Q89.91-49.68 88.60-49.68L88.60-49.68L71.35-49.68L71.35-49.68Q62.72-49.68 58.55-46.23L58.55-46.23L58.55-46.23Q54.37-42.78 54.37-35.60L54.37-35.60L54.37-14.08L54.37-14.08Q54.37-6.90 58.55-3.45L58.55-3.45L58.55-3.45Q62.72 0 71.35 0L71.35 0ZM88.04-6.21L74.31-6.21L74.31-6.21Q70.52-6.21 68.10-6.69L68.10-6.69L68.10-6.69Q65.69-7.18 64.31-8.25L64.31-8.25L64.31-8.25Q62.93-9.32 62.41-11.01L62.41-11.01L62.41-11.01Q61.89-12.70 61.89-15.11L61.89-15.11L61.89-34.43L61.89-34.43Q61.89-39.33 64.10-41.40L64.10-41.40L64.10-41.40Q66.31-43.47 72.93-43.47L72.93-43.47L84.87-43.47L84.87-42.78L72.93-42.78L72.93-42.78Q66.86-42.78 64.72-40.88L64.72-40.88L64.72-40.88Q62.58-38.99 62.58-34.43L62.58-34.43L62.58-15.11L62.58-15.11Q62.58-10.63 64.96-8.76L64.96-8.76L64.96-8.76Q67.34-6.90 74.31-6.90L74.31-6.90L87.35-6.90L87.35-20.08L88.04-20.08L88.04-6.21ZM134.76 0.69L105.36 0.69L105.36 0.69Q103.71 0.69 102.95-0.07L102.95-0.07L102.95-0.07Q102.19-0.83 102.19-2.48L102.19-2.48L102.19-10.70L102.19-10.70Q102.19-12.35 102.95-13.11L102.95-13.11L102.95-13.11Q103.71-13.87 105.36-13.87L105.36-13.87L111.50-13.87L111.50-35.67L105.36-35.67L105.36-35.67Q103.71-35.67 102.95-36.43L102.95-36.43L102.95-36.43Q102.19-37.19 102.19-38.85L102.19-38.85L102.19-47.20L102.19-47.20Q102.19-48.85 102.95-49.61L102.95-49.61L102.95-49.61Q103.71-50.37 105.36-50.37L105.36-50.37L134.76-50.37L134.76-50.37Q136.41-50.37 137.17-49.61L137.17-49.61L137.17-49.61Q137.93-48.85 137.93-47.20L137.93-47.20L137.93-38.85L137.93-38.85Q137.93-37.19 137.17-36.43L137.17-36.43L137.17-36.43Q136.41-35.67 134.76-35.67L134.76-35.67L128.75-35.67L128.75-13.87L134.76-13.87L134.76-13.87Q136.41-13.87 137.17-13.11L137.17-13.11L137.17-13.11Q137.93-12.35 137.93-10.70L137.93-10.70L137.93-2.48L137.93-2.48Q137.93-0.83 137.17-0.07L137.17-0.07L137.17-0.07Q136.41 0.69 134.76 0.69L134.76 0.69ZM105.36 0L105.36 0L134.76 0L134.76 0Q136.07 0 136.65-0.59L136.65-0.59L136.65-0.59Q137.24-1.17 137.24-2.48L137.24-2.48L137.24-10.70L137.24-10.70Q137.24-12.01 136.65-12.59L136.65-12.59L136.65-12.59Q136.07-13.18 134.76-13.18L134.76-13.18L128.06-13.18L128.06-36.36L134.76-36.36L134.76-36.36Q136.07-36.36 136.65-36.95L136.65-36.95L136.65-36.95Q137.24-37.54 137.24-38.85L137.24-38.85L137.24-47.20L137.24-47.20Q137.24-48.51 136.65-49.09L136.65-49.09L136.65-49.09Q136.07-49.68 134.76-49.68L134.76-49.68L105.36-49.68L105.36-49.68Q104.05-49.68 103.47-49.09L103.47-49.09L103.47-49.09Q102.88-48.51 102.88-47.20L102.88-47.20L102.88-38.85L102.88-38.85Q102.88-37.54 103.47-36.95L103.47-36.95L103.47-36.95Q104.05-36.36 105.36-36.36L105.36-36.36L112.19-36.36L112.19-13.18L105.36-13.18L105.36-13.18Q104.05-13.18 103.47-12.59L103.47-12.59L103.47-12.59Q102.88-12.01 102.88-10.70L102.88-10.70L102.88-2.48L102.88-2.48Q102.88-1.17 103.47-0.59L103.47-0.59L103.47-0.59Q104.05 0 105.36 0ZM131.03-6.90L131.03-6.21L109.09-6.21L109.09-6.90L119.78-6.90L119.78-42.78L109.09-42.78L109.09-43.47L131.03-43.47L131.03-42.78L120.47-42.78L120.47-6.90L131.03-6.90ZM183.33 0.69L148.21 0.69L148.21 0.69Q146.56 0.69 145.80-0.07L145.80-0.07L145.80-0.07Q145.04-0.83 145.04-2.48L145.04-2.48L145.04-47.20L145.04-47.20Q145.04-48.85 145.80-49.61L145.80-49.61L145.80-49.61Q146.56-50.37 148.21-50.37L148.21-50.37L158.91-50.37L158.91-50.37Q160.56-50.37 161.32-49.61L161.32-49.61L161.32-49.61Q162.08-48.85 162.08-47.20L162.08-47.20L162.08-13.73L170.15-13.73L170.15-24.22L170.15-24.22Q170.15-25.88 170.91-26.63L170.91-26.63L170.91-26.63Q171.67-27.39 173.33-27.39L173.33-27.39L183.33-27.39L183.33-27.39Q184.99-27.39 185.75-26.63L185.75-26.63L185.75-26.63Q186.51-25.88 186.51-24.22L186.51-24.22L186.51-2.48L186.51-2.48Q186.51-0.83 185.75-0.07L185.75-0.07L185.75-0.07Q184.99 0.69 183.33 0.69L183.33 0.69ZM148.21 0L183.33 0L183.33 0Q184.64 0 185.23-0.59L185.23-0.59L185.23-0.59Q185.82-1.17 185.82-2.48L185.82-2.48L185.82-24.22L185.82-24.22Q185.82-25.53 185.23-26.12L185.23-26.12L185.23-26.12Q184.64-26.70 183.33-26.70L183.33-26.70L173.33-26.70L173.33-26.70Q172.02-26.70 171.43-26.12L171.43-26.12L171.43-26.12Q170.84-25.53 170.84-24.22L170.84-24.22L170.84-13.04L161.39-13.04L161.39-47.20L161.39-47.20Q161.39-48.51 160.80-49.09L160.80-49.09L160.80-49.09Q160.22-49.68 158.91-49.68L158.91-49.68L148.21-49.68L148.21-49.68Q146.90-49.68 146.31-49.09L146.31-49.09L146.31-49.09Q145.73-48.51 145.73-47.20L145.73-47.20L145.73-2.48L145.73-2.48Q145.73-1.17 146.31-0.59L146.31-0.59L146.31-0.59Q146.90 0 148.21 0L148.21 0ZM178.64-6.21L153.25-6.21L153.25-43.47L153.94-43.47L153.94-6.90L177.95-6.90L177.95-20.49L178.64-20.49L178.64-6.21ZM228.18 0.69L196.17 0.69L196.17 0.69Q194.51 0.69 193.75-0.07L193.75-0.07L193.75-0.07Q192.99-0.83 192.99-2.48L192.99-2.48L192.99-47.20L192.99-47.20Q192.99-48.85 193.75-49.61L193.75-49.61L193.75-49.61Q194.51-50.37 196.17-50.37L196.17-50.37L228.18-50.37L228.18-50.37Q229.84-50.37 230.60-49.61L230.60-49.61L230.60-49.61Q231.36-48.85 231.36-47.20L231.36-47.20L231.36-39.12L231.36-39.12Q231.36-37.47 230.60-36.71L230.60-36.71L230.60-36.71Q229.84-35.95 228.18-35.95L228.18-35.95L209.83-35.95L209.83-32.02L222.59-32.02L222.59-32.02Q224.25-32.02 225.01-31.26L225.01-31.26L225.01-31.26Q225.77-30.50 225.77-28.84L225.77-28.84L225.77-21.46L225.77-21.46Q225.77-19.80 225.01-19.04L225.01-19.04L225.01-19.04Q224.25-18.29 222.59-18.29L222.59-18.29L209.83-18.29L209.83-13.73L228.18-13.73L228.18-13.73Q229.84-13.73 230.60-12.97L230.60-12.97L230.60-12.97Q231.36-12.21 231.36-10.56L231.36-10.56L231.36-2.48L231.36-2.48Q231.36-0.83 230.60-0.07L230.60-0.07L230.60-0.07Q229.84 0.69 228.18 0.69L228.18 0.69ZM196.17 0L228.18 0L228.18 0Q229.49 0 230.08-0.59L230.08-0.59L230.08-0.59Q230.67-1.17 230.67-2.48L230.67-2.48L230.67-10.56L230.67-10.56Q230.67-11.87 230.08-12.45L230.08-12.45L230.08-12.45Q229.49-13.04 228.18-13.04L228.18-13.04L209.14-13.04L209.14-18.98L222.59-18.98L222.59-18.98Q223.91-18.98 224.49-19.56L224.49-19.56L224.49-19.56Q225.08-20.15 225.08-21.46L225.08-21.46L225.08-28.84L225.08-28.84Q225.08-30.15 224.49-30.74L224.49-30.74L224.49-30.74Q223.91-31.33 222.59-31.33L222.59-31.33L209.14-31.33L209.14-36.64L228.18-36.64L228.18-36.64Q229.49-36.64 230.08-37.23L230.08-37.23L230.08-37.23Q230.67-37.81 230.67-39.12L230.67-39.12L230.67-47.20L230.67-47.20Q230.67-48.51 230.08-49.09L230.08-49.09L230.08-49.09Q229.49-49.68 228.18-49.68L228.18-49.68L196.17-49.68L196.17-49.68Q194.86-49.68 194.27-49.09L194.27-49.09L194.27-49.09Q193.68-48.51 193.68-47.20L193.68-47.20L193.68-2.48L193.68-2.48Q193.68-1.17 194.27-0.59L194.27-0.59L194.27-0.59Q194.86 0 196.17 0L196.17 0ZM201.89-6.90L224.46-6.90L224.46-6.21L201.20-6.21L201.20-43.47L224.46-43.47L224.46-42.78L201.89-42.78L201.89-25.46L218.87-25.46L218.87-24.77L201.89-24.77L201.89-6.90ZM279.17-3.66L270.62-3.66L270.62-3.66Q268.89-3.66 268.17-4.42L268.17-4.42L268.17-4.42Q267.44-5.18 267.44-6.83L267.44-6.83L267.44-17.73L256.89-17.73L256.89-17.73Q255.23-17.73 254.47-18.46L254.47-18.46L254.47-18.46Q253.71-19.18 253.71-20.91L253.71-20.91L253.71-28.77L253.71-28.77Q253.71-30.43 254.47-31.19L254.47-31.19L254.47-31.19Q255.23-31.95 256.89-31.95L256.89-31.95L267.44-31.95L267.44-42.85L267.44-42.85Q267.44-44.51 268.17-45.26L268.17-45.26L268.17-45.26Q268.89-46.02 270.62-46.02L270.62-46.02L279.17-46.02L279.17-46.02Q280.83-46.02 281.59-45.26L281.59-45.26L281.59-45.26Q282.35-44.51 282.35-42.85L282.35-42.85L282.35-31.95L292.91-31.95L292.91-31.95Q294.56-31.95 295.32-31.22L295.32-31.22L295.32-31.22Q296.08-30.50 296.08-28.77L296.08-28.77L296.08-20.91L296.08-20.91Q296.08-19.18 295.32-18.46L295.32-18.46L295.32-18.46Q294.56-17.73 292.91-17.73L292.91-17.73L282.35-17.73L282.35-6.83L282.35-6.83Q282.35-5.18 281.62-4.42L281.62-4.42L281.62-4.42Q280.90-3.66 279.17-3.66L279.17-3.66ZM281.66-6.83L281.66-6.83L281.66-18.42L292.91-18.42L292.91-18.42Q294.22-18.42 294.80-19.01L294.80-19.01L294.80-19.01Q295.39-19.60 295.39-20.91L295.39-20.91L295.39-28.77L295.39-28.77Q295.39-30.08 294.80-30.67L294.80-30.67L294.80-30.67Q294.22-31.26 292.91-31.26L292.91-31.26L281.66-31.26L281.66-42.85L281.66-42.85Q281.66-44.16 281.07-44.75L281.07-44.75L281.07-44.75Q280.49-45.33 279.17-45.33L279.17-45.33L270.62-45.33L270.62-45.33Q269.31-45.33 268.72-44.75L268.72-44.75L268.72-44.75Q268.13-44.16 268.13-42.85L268.13-42.85L268.13-31.26L256.89-31.26L256.89-31.26Q255.58-31.26 254.99-30.67L254.99-30.67L254.99-30.67Q254.40-30.08 254.40-28.77L254.40-28.77L254.40-20.91L254.40-20.91Q254.40-19.60 254.99-19.01L254.99-19.01L254.99-19.01Q255.58-18.42 256.89-18.42L256.89-18.42L268.13-18.42L268.13-6.83L268.13-6.83Q268.13-5.52 268.72-4.93L268.72-4.93L268.72-4.93Q269.31-4.35 270.62-4.35L270.62-4.35L279.17-4.35L279.17-4.35Q280.49-4.35 281.07-4.93L281.07-4.93L281.07-4.93Q281.66-5.52 281.66-6.83ZM275.24-10.56L274.55-10.56L274.55-24.50L260.61-24.50L260.61-25.19L274.55-25.19L274.55-39.12L275.24-39.12L275.24-25.19L289.18-25.19L289.18-24.50L275.24-24.50L275.24-10.56ZM363.91-35.60L363.91-14.08L363.91-14.08Q363.91-6.62 359.59-2.97L359.59-2.97L359.59-2.97Q355.28 0.69 346.24 0.69L346.24 0.69L322.99 0.69L322.99 0.69Q321.33 0.69 320.57-0.07L320.57-0.07L320.57-0.07Q319.82-0.83 319.82-2.48L319.82-2.48L319.82-47.20L319.82-47.20Q319.82-48.85 320.57-49.61L320.57-49.61L320.57-49.61Q321.33-50.37 322.99-50.37L322.99-50.37L346.24-50.37L346.24-50.37Q355.28-50.37 359.59-46.71L359.59-46.71L359.59-46.71Q363.91-43.06 363.91-35.60L363.91-35.60ZM322.99 0L346.24 0L346.24 0Q354.87 0 359.04-3.45L359.04-3.45L359.04-3.45Q363.22-6.90 363.22-14.08L363.22-14.08L363.22-35.60L363.22-35.60Q363.22-42.78 359.04-46.23L359.04-46.23L359.04-46.23Q354.87-49.68 346.24-49.68L346.24-49.68L322.99-49.68L322.99-49.68Q321.68-49.68 321.09-49.09L321.09-49.09L321.09-49.09Q320.51-48.51 320.51-47.20L320.51-47.20L320.51-2.48L320.51-2.48Q320.51-1.17 321.09-0.59L321.09-0.59L321.09-0.59Q321.68 0 322.99 0L322.99 0ZM344.72-6.21L328.03-6.21L328.03-43.47L344.72-43.47L344.72-43.47Q348.24-43.47 350.42-42.71L350.42-42.71L350.42-42.71Q352.59-41.95 353.76-40.68L353.76-40.68L353.76-40.68Q354.94-39.40 355.35-37.64L355.35-37.64L355.35-37.64Q355.76-35.88 355.76-33.88L355.76-33.88L355.76-15.59L355.76-15.59Q355.76-13.59 355.38-11.87L355.38-11.87L355.38-11.87Q355.01-10.14 353.83-8.90L353.83-8.90L353.83-8.90Q352.66-7.66 350.45-6.93L350.45-6.93L350.45-6.93Q348.24-6.21 344.72-6.21L344.72-6.21ZM344.72-42.78L344.72-42.78L328.72-42.78L328.72-6.90L344.72-6.90L344.72-6.90Q348.04-6.90 350.07-7.56L350.07-7.56L350.07-7.56Q352.11-8.21 353.21-9.35L353.21-9.35L353.21-9.35Q354.32-10.49 354.69-12.11L354.69-12.11L354.69-12.11Q355.07-13.73 355.07-15.59L355.07-15.59L355.07-33.88L355.07-33.88Q355.07-35.74 354.66-37.40L354.66-37.40L354.66-37.40Q354.25-39.05 353.14-40.23L353.14-40.23L353.14-40.23Q352.04-41.40 350.00-42.09L350.00-42.09L350.00-42.09Q347.97-42.78 344.72-42.78ZM336.17-13.04L336.17-36.50L344.38-36.50L344.38-36.50Q346.04-36.50 346.83-35.71L346.83-35.71L346.83-35.71Q347.62-34.91 347.62-33.19L347.62-33.19L347.62-16.42L347.62-16.42Q347.62-14.70 346.83-13.87L346.83-13.87L346.83-13.87Q346.04-13.04 344.38-13.04L344.38-13.04L336.17-13.04ZM344.38-35.81L344.38-35.81L336.86-35.81L336.86-13.73L344.38-13.73L344.38-13.73Q345.69-13.73 346.31-14.39L346.31-14.39L346.31-14.39Q346.93-15.04 346.93-16.42L346.93-16.42L346.93-33.19L346.93-33.19Q346.93-34.50 346.31-35.16L346.31-35.16L346.31-35.16Q345.69-35.81 344.38-35.81ZM414.76-36.57L414.76-36.57L414.76-13.04L414.76-13.04Q414.76-9.80 413.86-7.07L413.86-7.07L413.86-7.07Q412.97-4.35 410.52-2.42L410.52-2.42L410.52-2.42Q408.07-0.48 403.75 0.62L403.75 0.62L403.75 0.62Q399.44 1.73 392.68 1.73L392.68 1.73L392.68 1.73Q385.92 1.73 381.60 0.62L381.60 0.62L381.60 0.62Q377.29-0.48 374.84-2.42L374.84-2.42L374.84-2.42Q372.39-4.35 371.46-7.07L371.46-7.07L371.46-7.07Q370.53-9.80 370.53-13.04L370.53-13.04L370.53-36.57L370.53-36.57Q370.53-39.81 371.46-42.54L371.46-42.54L371.46-42.54Q372.39-45.26 374.84-47.23L374.84-47.23L374.84-47.23Q377.29-49.20 381.60-50.30L381.60-50.30L381.60-50.30Q385.92-51.41 392.68-51.41L392.68-51.41L392.68-51.41Q399.44-51.41 403.75-50.30L403.75-50.30L403.75-50.30Q408.07-49.20 410.52-47.23L410.52-47.23L410.52-47.23Q412.97-45.26 413.86-42.54L413.86-42.54L413.86-42.54Q414.76-39.81 414.76-36.57ZM414.07-13.04L414.07-13.04L414.07-36.57L414.07-36.57Q414.07-39.74 413.14-42.33L413.14-42.33L413.14-42.33Q412.21-44.92 409.83-46.78L409.83-46.78L409.83-46.78Q407.45-48.65 403.27-49.68L403.27-49.68L403.27-49.68Q399.10-50.72 392.68-50.72L392.68-50.72L392.68-50.72Q386.26-50.72 382.05-49.68L382.05-49.68L382.05-49.68Q377.84-48.65 375.46-46.78L375.46-46.78L375.46-46.78Q373.08-44.92 372.15-42.33L372.15-42.33L372.15-42.33Q371.22-39.74 371.22-36.57L371.22-36.57L371.22-13.04L371.22-13.04Q371.22-9.87 372.15-7.28L372.15-7.28L372.15-7.28Q373.08-4.69 375.46-2.86L375.46-2.86L375.46-2.86Q377.84-1.04 382.05 0L382.05 0L382.05 0Q386.26 1.04 392.68 1.04L392.68 1.04L392.68 1.04Q399.10 1.04 403.27 0L403.27 0L403.27 0Q407.45-1.04 409.83-2.86L409.83-2.86L409.83-2.86Q412.21-4.69 413.14-7.28L413.14-7.28L413.14-7.28Q414.07-9.87 414.07-13.04ZM406.55-34.98L406.55-14.63L406.55-14.63Q406.55-10.49 403.58-7.90L403.58-7.90L403.58-7.90Q400.61-5.31 392.54-5.31L392.54-5.31L392.54-5.31Q384.47-5.31 381.57-7.90L381.57-7.90L381.57-7.90Q378.67-10.49 378.67-14.63L378.67-14.63L378.67-34.98L378.67-34.98Q378.67-39.12 381.57-41.71L381.57-41.71L381.57-41.71Q384.47-44.30 392.54-44.30L392.54-44.30L392.54-44.30Q400.61-44.30 403.58-41.71L403.58-41.71L403.58-41.71Q406.55-39.12 406.55-34.98L406.55-34.98ZM379.36-34.98L379.36-14.63L379.36-14.63Q379.36-10.76 382.12-8.38L382.12-8.38L382.12-8.38Q384.88-6.00 392.54-6.00L392.54-6.00L392.54-6.00Q400.20-6.00 403.03-8.38L403.03-8.38L403.03-8.38Q405.86-10.76 405.86-14.63L405.86-14.63L405.86-34.98L405.86-34.98Q405.86-38.85 403.03-41.23L403.03-41.23L403.03-41.23Q400.20-43.61 392.54-43.61L392.54-43.61L392.54-43.61Q384.88-43.61 382.12-41.23L382.12-41.23L382.12-41.23Q379.36-38.85 379.36-34.98L379.36-34.98ZM386.88-15.53L386.88-15.53L386.88-34.09L386.88-34.09Q386.88-35.40 387.92-36.33L387.92-36.33L387.92-36.33Q388.95-37.26 392.68-37.26L392.68-37.26L392.68-37.26Q396.41-37.26 397.44-36.33L397.44-36.33L397.44-36.33Q398.48-35.40 398.48-34.09L398.48-34.09L398.48-15.53L398.48-15.53Q398.48-14.15 397.44-13.21L397.44-13.21L397.44-13.21Q396.41-12.28 392.68-12.28L392.68-12.28L392.68-12.28Q388.95-12.28 387.92-13.21L387.92-13.21L387.92-13.21Q386.88-14.15 386.88-15.53ZM387.57-34.09L387.57-34.09L387.57-15.53L387.57-15.53Q387.57-14.28 388.64-13.63L388.64-13.63L388.64-13.63Q389.71-12.97 392.68-12.97L392.68-12.97L392.68-12.97Q395.65-12.97 396.72-13.63L396.72-13.63L396.72-13.63Q397.79-14.28 397.79-15.53L397.79-15.53L397.79-34.09L397.79-34.09Q397.79-35.26 396.72-35.91L396.72-35.91L396.72-35.91Q395.65-36.57 392.68-36.57L392.68-36.57L392.68-36.57Q389.78-36.57 388.68-35.91L388.68-35.91L388.68-35.91Q387.57-35.26 387.57-34.09ZM459.06-10.70L459.06-2.48L459.06-2.48Q459.06-0.83 458.30-0.07L458.30-0.07L458.30-0.07Q457.54 0.69 455.88 0.69L455.88 0.69L439.05 0.69L439.05 0.69Q430.01 0.69 425.70-2.97L425.70-2.97L425.70-2.97Q421.38-6.62 421.38-14.08L421.38-14.08L421.38-35.54L421.38-35.54Q421.38-43.06 425.70-46.71L425.70-46.71L425.70-46.71Q430.01-50.37 439.05-50.37L439.05-50.37L455.88-50.37L455.88-50.37Q457.54-50.37 458.30-49.61L458.30-49.61L458.30-49.61Q459.06-48.85 459.06-47.20L459.06-47.20L459.06-38.85L459.06-38.85Q459.06-37.19 458.30-36.43L458.30-36.43L458.30-36.43Q457.54-35.67 455.88-35.67L455.88-35.67L442.01-35.67L442.01-35.67Q440.29-35.67 439.39-35.02L439.39-35.02L439.39-35.02Q438.50-34.36 438.50-32.91L438.50-32.91L438.50-16.49L438.50-16.49Q438.50-15.04 439.39-14.46L439.39-14.46L439.39-14.46Q440.29-13.87 442.01-13.87L442.01-13.87L455.88-13.87L455.88-13.87Q457.54-13.87 458.30-13.11L458.30-13.11L458.30-13.11Q459.06-12.35 459.06-10.70L459.06-10.70ZM439.05 0L455.88 0L455.88 0Q457.19 0 457.78-0.59L457.78-0.59L457.78-0.59Q458.37-1.17 458.37-2.48L458.37-2.48L458.37-10.70L458.37-10.70Q458.37-12.01 457.78-12.59L457.78-12.59L457.78-12.59Q457.19-13.18 455.88-13.18L455.88-13.18L442.01-13.18L442.01-13.18Q439.88-13.18 438.84-13.97L438.84-13.97L438.84-13.97Q437.81-14.77 437.81-16.49L437.81-16.49L437.81-32.91L437.81-32.91Q437.81-34.64 438.84-35.50L438.84-35.50L438.84-35.50Q439.88-36.36 442.01-36.36L442.01-36.36L455.88-36.36L455.88-36.36Q457.19-36.36 457.78-36.95L457.78-36.95L457.78-36.95Q458.37-37.54 458.37-38.85L458.37-38.85L458.37-47.20L458.37-47.20Q458.37-48.51 457.78-49.09L457.78-49.09L457.78-49.09Q457.19-49.68 455.88-49.68L455.88-49.68L439.05-49.68L439.05-49.68Q430.42-49.68 426.25-46.20L426.25-46.20L426.25-46.20Q422.07-42.71 422.07-35.54L422.07-35.54L422.07-14.08L422.07-14.08Q422.07-6.90 426.25-3.45L426.25-3.45L426.25-3.45Q430.42 0 439.05 0L439.05 0ZM440.57-6.90L452.09-6.90L452.09-6.21L440.57-6.21L440.57-6.21Q433.87-6.21 431.70-8.28L431.70-8.28L431.70-8.28Q429.53-10.35 429.53-15.11L429.53-15.11L429.53-34.43L429.53-34.43Q429.53-39.33 431.73-41.40L431.73-41.40L431.73-41.40Q433.94-43.47 440.57-43.47L440.57-43.47L452.09-43.47L452.09-42.78L440.57-42.78L440.57-42.78Q434.49-42.78 432.35-40.88L432.35-40.88L432.35-40.88Q430.22-38.99 430.22-34.43L430.22-34.43L430.22-15.11L430.22-15.11Q430.22-10.63 432.29-8.76L432.29-8.76L432.29-8.76Q434.36-6.90 440.57-6.90L440.57-6.90ZM488.66-20.91L488.66-20.91L488.66-18.77L515.57-18.77L515.57-20.91L515.57-20.91Q515.57-22.77 515.26-24.36L515.26-24.36L515.26-24.36Q514.95-25.94 514.46-27.32L514.46-27.32L509.70-38.57L509.70-38.57Q508.94-40.37 508.12-41.57L508.12-41.57L508.12-41.57Q507.29-42.78 505.36-42.78L505.36-42.78L498.59-42.78L498.59-42.78Q496.52-42.78 495.70-41.57L495.70-41.57L495.70-41.57Q494.87-40.37 494.18-38.64L494.18-38.64L489.76-27.32L489.76-27.32Q489.28-25.94 488.97-24.36L488.97-24.36L488.97-24.36Q488.66-22.77 488.66-20.91ZM496.45-24.70L499.70-35.19L499.70-35.19Q499.97-35.81 500.28-36.09L500.28-36.09L500.28-36.09Q500.60-36.36 501.01-36.36L501.01-36.36L502.73-36.36L502.73-36.36Q503.15-36.36 503.46-36.09L503.46-36.09L503.46-36.09Q503.77-35.81 504.05-35.19L504.05-35.19L507.29-24.70L496.45-24.70ZM506.32-25.39L503.36-34.98L503.42-34.91L503.42-34.91Q503.29-35.19 503.15-35.43L503.15-35.43L503.15-35.43Q503.01-35.67 502.73-35.67L502.73-35.67L501.01-35.67L501.01-35.67Q500.73-35.67 500.60-35.43L500.60-35.43L500.60-35.43Q500.46-35.19 500.32-34.91L500.32-34.91L500.39-34.98L497.42-25.39L506.32-25.39ZM516.26-6.21L515.57-6.21L515.57-18.08L488.66-18.08L488.66-6.21L487.97-6.21L487.97-20.91L487.97-20.91Q487.97-22.84 488.28-24.46L488.28-24.46L488.28-24.46Q488.59-26.08 489.14-27.60L489.14-27.60L493.56-38.92L493.56-38.92Q494.32-40.85 495.28-42.16L495.28-42.16L495.28-42.16Q496.25-43.47 498.59-43.47L498.59-43.47L505.36-43.47L505.36-43.47Q507.63-43.47 508.56-42.16L508.56-42.16L508.56-42.16Q509.50-40.85 510.32-38.85L510.32-38.85L515.09-27.60L515.09-27.60Q515.64-26.08 515.95-24.46L515.95-24.46L515.95-24.46Q516.26-22.84 516.26-20.91L516.26-20.91L516.26-6.21ZM495.76-2.48L495.76-2.48L495.76-12.14L507.98-12.14L507.98-2.48L507.98-2.48Q507.98-1.17 508.63-0.59L508.63-0.59L508.63-0.59Q509.29 0 510.67 0L510.67 0L521.09 0L521.09 0Q522.40 0 522.99-0.59L522.99-0.59L522.99-0.59Q523.57-1.17 523.57-2.48L523.57-2.48L523.57-20.70L523.57-20.70Q523.57-22.77 522.92-25.46L522.92-25.46L522.92-25.46Q522.26-28.15 520.88-31.74L520.88-31.74L514.88-47.40L514.88-47.40Q514.46-48.58 513.60-49.13L513.60-49.13L513.60-49.13Q512.74-49.68 511.43-49.68L511.43-49.68L492.87-49.68L492.87-49.68Q491.49-49.68 490.62-49.13L490.62-49.13L490.62-49.13Q489.76-48.58 489.35-47.40L489.35-47.40L483.34-31.74L483.34-31.74Q481.96-28.15 481.31-25.46L481.31-25.46L481.31-25.46Q480.65-22.77 480.65-20.70L480.65-20.70L480.65-2.48L480.65-2.48Q480.65-1.17 481.24-0.59L481.24-0.59L481.24-0.59Q481.83 0 483.14 0L483.14 0L493.28 0L493.28 0Q494.59 0 495.18-0.59L495.18-0.59L495.18-0.59Q495.76-1.17 495.76-2.48ZM493.28 0.69L483.14 0.69L483.14 0.69Q481.48 0.69 480.72-0.07L480.72-0.07L480.72-0.07Q479.96-0.83 479.96-2.48L479.96-2.48L479.96-20.70L479.96-20.70Q479.96-22.84 480.62-25.56L480.62-25.56L480.62-25.56Q481.27-28.29 482.72-32.02L482.72-32.02L488.73-47.61L488.73-47.61Q489.21-49.06 490.21-49.71L490.21-49.71L490.21-49.71Q491.21-50.37 492.87-50.37L492.87-50.37L511.43-50.37L511.43-50.37Q513.01-50.37 514.02-49.71L514.02-49.71L514.02-49.71Q515.02-49.06 515.50-47.68L515.50-47.68L521.50-32.02L521.50-32.02Q522.95-28.29 523.61-25.56L523.61-25.56L523.61-25.56Q524.26-22.84 524.26-20.70L524.26-20.70L524.26-2.48L524.26-2.48Q524.26-0.83 523.50-0.07L523.50-0.07L523.50-0.07Q522.74 0.69 521.09 0.69L521.09 0.69L510.67 0.69L510.67 0.69Q508.94 0.69 508.12-0.10L508.12-0.10L508.12-0.10Q507.29-0.90 507.29-2.48L507.29-2.48L507.29-11.45L496.45-11.45L496.45-2.48L496.45-2.48Q496.45-0.83 495.70-0.07L495.70-0.07L495.70-0.07Q494.94 0.69 493.28 0.69L493.28 0.69ZM570.08-19.39L570.08-12.14L570.08-12.14Q570.08-5.93 566.08-2.62L566.08-2.62L566.08-2.62Q562.07 0.69 555.11 0.69L555.11 0.69L533.30 0.69L533.30 0.69Q531.64 0.69 530.89-0.07L530.89-0.07L530.89-0.07Q530.13-0.83 530.13-2.48L530.13-2.48L530.13-10.56L530.13-10.56Q530.13-12.21 530.89-12.97L530.89-12.97L530.89-12.97Q531.64-13.73 533.30-13.73L533.30-13.73L551.86-13.73L551.86-13.73Q552.41-13.73 552.69-14.15L552.69-14.15L552.69-14.15Q552.97-14.56 552.97-15.04L552.97-15.04L552.97-15.04Q552.97-15.80 552.69-16.21L552.69-16.21L552.69-16.21Q552.41-16.63 551.79-16.70L551.79-16.70L541.44-18.15L541.44-18.15Q536.27-18.91 533.20-21.56L533.20-21.56L533.20-21.56Q530.13-24.22 530.13-30.29L530.13-30.29L530.13-37.54L530.13-37.54Q530.13-43.75 534.09-47.06L534.09-47.06L534.09-47.06Q538.06-50.37 545.10-50.37L545.10-50.37L564.42-50.37L564.42-50.37Q566.08-50.37 566.84-49.61L566.84-49.61L566.84-49.61Q567.59-48.85 567.59-47.20L567.59-47.20L567.59-38.99L567.59-38.99Q567.59-37.33 566.84-36.57L566.84-36.57L566.84-36.57Q566.08-35.81 564.42-35.81L564.42-35.81L548.34-35.81L548.34-35.81Q547.79-35.81 547.48-35.40L547.48-35.40L547.48-35.40Q547.17-34.98 547.17-34.43L547.17-34.43L547.17-34.43Q547.17-33.81 547.48-33.40L547.48-33.40L547.48-33.40Q547.79-32.98 548.41-32.91L548.41-32.91L558.69-31.53L558.69-31.53Q563.87-30.77 566.97-28.12L566.97-28.12L566.97-28.12Q570.08-25.46 570.08-19.39L570.08-19.39ZM533.30 0L555.11 0L555.11 0Q561.73 0 565.56-3.14L565.56-3.14L565.56-3.14Q569.39-6.28 569.39-12.14L569.39-12.14L569.39-19.39L569.39-19.39Q569.39-25.19 566.42-27.67L566.42-27.67L566.42-27.67Q563.45-30.15 558.62-30.84L558.62-30.84L548.34-32.22L548.34-32.22Q547.45-32.29 546.96-32.91L546.96-32.91L546.96-32.91Q546.48-33.53 546.48-34.43L546.48-34.43L546.48-34.43Q546.48-35.33 546.96-35.91L546.96-35.91L546.96-35.91Q547.45-36.50 548.34-36.50L548.34-36.50L564.42-36.50L564.42-36.50Q565.73-36.50 566.32-37.09L566.32-37.09L566.32-37.09Q566.90-37.67 566.90-38.99L566.90-38.99L566.90-47.20L566.90-47.20Q566.90-48.51 566.32-49.09L566.32-49.09L566.32-49.09Q565.73-49.68 564.42-49.68L564.42-49.68L545.10-49.68L545.10-49.68Q538.41-49.68 534.61-46.54L534.61-46.54L534.61-46.54Q530.82-43.40 530.82-37.54L530.82-37.54L530.82-30.29L530.82-30.29Q530.82-24.50 533.75-22.01L533.75-22.01L533.75-22.01Q536.68-19.53 541.51-18.84L541.51-18.84L551.86-17.39L551.86-17.39Q552.76-17.32 553.21-16.77L553.21-16.77L553.21-16.77Q553.66-16.21 553.66-15.04L553.66-15.04L553.66-15.04Q553.66-14.21 553.21-13.63L553.21-13.63L553.21-13.63Q552.76-13.04 551.86-13.04L551.86-13.04L533.30-13.04L533.30-13.04Q531.99-13.04 531.40-12.45L531.40-12.45L531.40-12.45Q530.82-11.87 530.82-10.56L530.82-10.56L530.82-2.48L530.82-2.48Q530.82-1.17 531.40-0.59L531.40-0.59L531.40-0.59Q531.99 0 533.30 0L533.30 0ZM545.38-43.47L560.69-43.47L560.69-42.78L545.38-42.78L545.38-42.78Q542.48-42.78 540.75-41.19L540.75-41.19L540.75-41.19Q539.03-39.61 539.03-37.19L539.03-37.19L539.03-31.53L539.03-31.53Q539.03-29.12 539.99-28.15L539.99-28.15L539.99-28.15Q540.96-27.19 542.55-26.91L542.55-26.91L557.11-23.94L557.11-23.94Q559.18-23.53 560.52-22.15L560.52-22.15L560.52-22.15Q561.87-20.77 561.87-17.18L561.87-17.18L561.87-13.18L561.87-13.18Q561.87-10.14 559.80-8.18L559.80-8.18L559.80-8.18Q557.73-6.21 554.21-6.21L554.21-6.21L537.03-6.21L537.03-6.90L554.21-6.90L554.21-6.90Q557.38-6.90 559.28-8.66L559.28-8.66L559.28-8.66Q561.18-10.42 561.18-13.18L561.18-13.18L561.18-17.18L561.18-17.18Q561.18-20.42 560.04-21.63L560.04-21.63L560.04-21.63Q558.90-22.84 556.97-23.25L556.97-23.25L542.41-26.22L542.41-26.22Q540.62-26.57 539.48-27.63L539.48-27.63L539.48-27.63Q538.34-28.70 538.34-31.53L538.34-31.53L538.34-37.19L538.34-37.19Q538.34-39.95 540.27-41.71L540.27-41.71L540.27-41.71Q542.20-43.47 545.38-43.47L545.38-43.47ZM628.66-10.70L628.66-2.48L628.66-2.48Q628.66-0.83 627.90-0.07L627.90-0.07L627.90-0.07Q627.14 0.69 625.49 0.69L625.49 0.69L608.65 0.69L608.65 0.69Q599.61 0.69 595.30-2.97L595.30-2.97L595.30-2.97Q590.99-6.62 590.99-14.08L590.99-14.08L590.99-35.54L590.99-35.54Q590.99-43.06 595.30-46.71L595.30-46.71L595.30-46.71Q599.61-50.37 608.65-50.37L608.65-50.37L625.49-50.37L625.49-50.37Q627.14-50.37 627.90-49.61L627.90-49.61L627.90-49.61Q628.66-48.85 628.66-47.20L628.66-47.20L628.66-38.85L628.66-38.85Q628.66-37.19 627.90-36.43L627.90-36.43L627.90-36.43Q627.14-35.67 625.49-35.67L625.49-35.67L611.62-35.67L611.62-35.67Q609.89-35.67 608.99-35.02L608.99-35.02L608.99-35.02Q608.10-34.36 608.10-32.91L608.10-32.91L608.10-16.49L608.10-16.49Q608.10-15.04 608.99-14.46L608.99-14.46L608.99-14.46Q609.89-13.87 611.62-13.87L611.62-13.87L625.49-13.87L625.49-13.87Q627.14-13.87 627.90-13.11L627.90-13.11L627.90-13.11Q628.66-12.35 628.66-10.70L628.66-10.70ZM608.65 0L625.49 0L625.49 0Q626.80 0 627.38-0.59L627.38-0.59L627.38-0.59Q627.97-1.17 627.97-2.48L627.97-2.48L627.97-10.70L627.97-10.70Q627.97-12.01 627.38-12.59L627.38-12.59L627.38-12.59Q626.80-13.18 625.49-13.18L625.49-13.18L611.62-13.18L611.62-13.18Q609.48-13.18 608.44-13.97L608.44-13.97L608.44-13.97Q607.41-14.77 607.41-16.49L607.41-16.49L607.41-32.91L607.41-32.91Q607.41-34.64 608.44-35.50L608.44-35.50L608.44-35.50Q609.48-36.36 611.62-36.36L611.62-36.36L625.49-36.36L625.49-36.36Q626.80-36.36 627.38-36.95L627.38-36.95L627.38-36.95Q627.97-37.54 627.97-38.85L627.97-38.85L627.97-47.20L627.97-47.20Q627.97-48.51 627.38-49.09L627.38-49.09L627.38-49.09Q626.80-49.68 625.49-49.68L625.49-49.68L608.65-49.68L608.65-49.68Q600.02-49.68 595.85-46.20L595.85-46.20L595.85-46.20Q591.67-42.71 591.67-35.54L591.67-35.54L591.67-14.08L591.67-14.08Q591.67-6.90 595.85-3.45L595.85-3.45L595.85-3.45Q600.02 0 608.65 0L608.65 0ZM610.17-6.90L621.69-6.90L621.69-6.21L610.17-6.21L610.17-6.21Q603.47-6.21 601.30-8.28L601.30-8.28L601.30-8.28Q599.13-10.35 599.13-15.11L599.13-15.11L599.13-34.43L599.13-34.43Q599.13-39.33 601.34-41.40L601.34-41.40L601.34-41.40Q603.54-43.47 610.17-43.47L610.17-43.47L621.69-43.47L621.69-42.78L610.17-42.78L610.17-42.78Q604.10-42.78 601.96-40.88L601.96-40.88L601.96-40.88Q599.82-38.99 599.82-34.43L599.82-34.43L599.82-15.11L599.82-15.11Q599.82-10.63 601.89-8.76L601.89-8.76L601.89-8.76Q603.96-6.90 610.17-6.90L610.17-6.90ZM678.55-36.57L678.55-36.57L678.55-13.04L678.55-13.04Q678.55-9.80 677.65-7.07L677.65-7.07L677.65-7.07Q676.75-4.35 674.30-2.42L674.30-2.42L674.30-2.42Q671.85-0.48 667.54 0.62L667.54 0.62L667.54 0.62Q663.23 1.73 656.47 1.73L656.47 1.73L656.47 1.73Q649.70 1.73 645.39 0.62L645.39 0.62L645.39 0.62Q641.08-0.48 638.63-2.42L638.63-2.42L638.63-2.42Q636.18-4.35 635.25-7.07L635.25-7.07L635.25-7.07Q634.32-9.80 634.32-13.04L634.32-13.04L634.32-36.57L634.32-36.57Q634.32-39.81 635.25-42.54L635.25-42.54L635.25-42.54Q636.18-45.26 638.63-47.23L638.63-47.23L638.63-47.23Q641.08-49.20 645.39-50.30L645.39-50.30L645.39-50.30Q649.70-51.41 656.47-51.41L656.47-51.41L656.47-51.41Q663.23-51.41 667.54-50.30L667.54-50.30L667.54-50.30Q671.85-49.20 674.30-47.23L674.30-47.23L674.30-47.23Q676.75-45.26 677.65-42.54L677.65-42.54L677.65-42.54Q678.55-39.81 678.55-36.57ZM677.86-13.04L677.86-13.04L677.86-36.57L677.86-36.57Q677.86-39.74 676.92-42.33L676.92-42.33L676.92-42.33Q675.99-44.92 673.61-46.78L673.61-46.78L673.61-46.78Q671.23-48.65 667.06-49.68L667.06-49.68L667.06-49.68Q662.88-50.72 656.47-50.72L656.47-50.72L656.47-50.72Q650.05-50.72 645.84-49.68L645.84-49.68L645.84-49.68Q641.63-48.65 639.25-46.78L639.25-46.78L639.25-46.78Q636.87-44.92 635.94-42.33L635.94-42.33L635.94-42.33Q635.01-39.74 635.01-36.57L635.01-36.57L635.01-13.04L635.01-13.04Q635.01-9.87 635.94-7.28L635.94-7.28L635.94-7.28Q636.87-4.69 639.25-2.86L639.25-2.86L639.25-2.86Q641.63-1.04 645.84 0L645.84 0L645.84 0Q650.05 1.04 656.47 1.04L656.47 1.04L656.47 1.04Q662.88 1.04 667.06 0L667.06 0L667.06 0Q671.23-1.04 673.61-2.86L673.61-2.86L673.61-2.86Q675.99-4.69 676.92-7.28L676.92-7.28L676.92-7.28Q677.86-9.87 677.86-13.04ZM670.34-34.98L670.34-14.63L670.34-14.63Q670.34-10.49 667.37-7.90L667.37-7.90L667.37-7.90Q664.40-5.31 656.33-5.31L656.33-5.31L656.33-5.31Q648.25-5.31 645.36-7.90L645.36-7.90L645.36-7.90Q642.46-10.49 642.46-14.63L642.46-14.63L642.46-34.98L642.46-34.98Q642.46-39.12 645.36-41.71L645.36-41.71L645.36-41.71Q648.25-44.30 656.33-44.30L656.33-44.30L656.33-44.30Q664.40-44.30 667.37-41.71L667.37-41.71L667.37-41.71Q670.34-39.12 670.34-34.98L670.34-34.98ZM643.15-34.98L643.15-14.63L643.15-14.63Q643.15-10.76 645.91-8.38L645.91-8.38L645.91-8.38Q648.67-6.00 656.33-6.00L656.33-6.00L656.33-6.00Q663.99-6.00 666.82-8.38L666.82-8.38L666.82-8.38Q669.64-10.76 669.64-14.63L669.64-14.63L669.64-34.98L669.64-34.98Q669.64-38.85 666.82-41.23L666.82-41.23L666.82-41.23Q663.99-43.61 656.33-43.61L656.33-43.61L656.33-43.61Q648.67-43.61 645.91-41.23L645.91-41.23L645.91-41.23Q643.15-38.85 643.15-34.98L643.15-34.98ZM650.67-15.53L650.67-15.53L650.67-34.09L650.67-34.09Q650.67-35.40 651.71-36.33L651.71-36.33L651.71-36.33Q652.74-37.26 656.47-37.26L656.47-37.26L656.47-37.26Q660.19-37.26 661.23-36.33L661.23-36.33L661.23-36.33Q662.26-35.40 662.26-34.09L662.26-34.09L662.26-15.53L662.26-15.53Q662.26-14.15 661.23-13.21L661.23-13.21L661.23-13.21Q660.19-12.28 656.47-12.28L656.47-12.28L656.47-12.28Q652.74-12.28 651.71-13.21L651.71-13.21L651.71-13.21Q650.67-14.15 650.67-15.53ZM651.36-34.09L651.36-34.09L651.36-15.53L651.36-15.53Q651.36-14.28 652.43-13.63L652.43-13.63L652.43-13.63Q653.50-12.97 656.47-12.97L656.47-12.97L656.47-12.97Q659.43-12.97 660.50-13.63L660.50-13.63L660.50-13.63Q661.57-14.28 661.57-15.53L661.57-15.53L661.57-34.09L661.57-34.09Q661.57-35.26 660.50-35.91L660.50-35.91L660.50-35.91Q659.43-36.57 656.47-36.57L656.47-36.57L656.47-36.57Q653.57-36.57 652.46-35.91L652.46-35.91L652.46-35.91Q651.36-35.26 651.36-34.09ZM730.02-35.60L730.02-14.08L730.02-14.08Q730.02-6.62 725.71-2.97L725.71-2.97L725.71-2.97Q721.39 0.69 712.36 0.69L712.36 0.69L689.10 0.69L689.10 0.69Q687.45 0.69 686.69-0.07L686.69-0.07L686.69-0.07Q685.93-0.83 685.93-2.48L685.93-2.48L685.93-47.20L685.93-47.20Q685.93-48.85 686.69-49.61L686.69-49.61L686.69-49.61Q687.45-50.37 689.10-50.37L689.10-50.37L712.36-50.37L712.36-50.37Q721.39-50.37 725.71-46.71L725.71-46.71L725.71-46.71Q730.02-43.06 730.02-35.60L730.02-35.60ZM689.10 0L712.36 0L712.36 0Q720.98 0 725.16-3.45L725.16-3.45L725.16-3.45Q729.33-6.90 729.33-14.08L729.33-14.08L729.33-35.60L729.33-35.60Q729.33-42.78 725.16-46.23L725.16-46.23L725.16-46.23Q720.98-49.68 712.36-49.68L712.36-49.68L689.10-49.68L689.10-49.68Q687.79-49.68 687.21-49.09L687.21-49.09L687.21-49.09Q686.62-48.51 686.62-47.20L686.62-47.20L686.62-2.48L686.62-2.48Q686.62-1.17 687.21-0.59L687.21-0.59L687.21-0.59Q687.79 0 689.10 0L689.10 0ZM710.84-6.21L694.14-6.21L694.14-43.47L710.84-43.47L710.84-43.47Q714.36-43.47 716.53-42.71L716.53-42.71L716.53-42.71Q718.70-41.95 719.88-40.68L719.88-40.68L719.88-40.68Q721.05-39.40 721.46-37.64L721.46-37.64L721.46-37.64Q721.88-35.88 721.88-33.88L721.88-33.88L721.88-15.59L721.88-15.59Q721.88-13.59 721.50-11.87L721.50-11.87L721.50-11.87Q721.12-10.14 719.95-8.90L719.95-8.90L719.95-8.90Q718.77-7.66 716.56-6.93L716.56-6.93L716.56-6.93Q714.36-6.21 710.84-6.21L710.84-6.21ZM710.84-42.78L710.84-42.78L694.83-42.78L694.83-6.90L710.84-6.90L710.84-6.90Q714.15-6.90 716.19-7.56L716.19-7.56L716.19-7.56Q718.22-8.21 719.32-9.35L719.32-9.35L719.32-9.35Q720.43-10.49 720.81-12.11L720.81-12.11L720.81-12.11Q721.19-13.73 721.19-15.59L721.19-15.59L721.19-33.88L721.19-33.88Q721.19-35.74 720.77-37.40L720.77-37.40L720.77-37.40Q720.36-39.05 719.26-40.23L719.26-40.23L719.26-40.23Q718.15-41.40 716.12-42.09L716.12-42.09L716.12-42.09Q714.08-42.78 710.84-42.78ZM702.28-13.04L702.28-36.50L710.49-36.50L710.49-36.50Q712.15-36.50 712.94-35.71L712.94-35.71L712.94-35.71Q713.74-34.91 713.74-33.19L713.74-33.19L713.74-16.42L713.74-16.42Q713.74-14.70 712.94-13.87L712.94-13.87L712.94-13.87Q712.15-13.04 710.49-13.04L710.49-13.04L702.28-13.04ZM710.49-35.81L710.49-35.81L702.97-35.81L702.97-13.73L710.49-13.73L710.49-13.73Q711.80-13.73 712.42-14.39L712.42-14.39L712.42-14.39Q713.05-15.04 713.05-16.42L713.05-16.42L713.05-33.19L713.05-33.19Q713.05-34.50 712.42-35.16L712.42-35.16L712.42-35.16Q711.80-35.81 710.49-35.81ZM772.59 0.69L740.58 0.69L740.58 0.69Q738.92 0.69 738.16-0.07L738.16-0.07L738.16-0.07Q737.40-0.83 737.40-2.48L737.40-2.48L737.40-47.20L737.40-47.20Q737.40-48.85 738.16-49.61L738.16-49.61L738.16-49.61Q738.92-50.37 740.58-50.37L740.58-50.37L772.59-50.37L772.59-50.37Q774.25-50.37 775.01-49.61L775.01-49.61L775.01-49.61Q775.77-48.85 775.77-47.20L775.77-47.20L775.77-39.12L775.77-39.12Q775.77-37.47 775.01-36.71L775.01-36.71L775.01-36.71Q774.25-35.95 772.59-35.95L772.59-35.95L754.24-35.95L754.24-32.02L767.00-32.02L767.00-32.02Q768.66-32.02 769.42-31.26L769.42-31.26L769.42-31.26Q770.18-30.50 770.18-28.84L770.18-28.84L770.18-21.46L770.18-21.46Q770.18-19.80 769.42-19.04L769.42-19.04L769.42-19.04Q768.66-18.29 767.00-18.29L767.00-18.29L754.24-18.29L754.24-13.73L772.59-13.73L772.59-13.73Q774.25-13.73 775.01-12.97L775.01-12.97L775.01-12.97Q775.77-12.21 775.77-10.56L775.77-10.56L775.77-2.48L775.77-2.48Q775.77-0.83 775.01-0.07L775.01-0.07L775.01-0.07Q774.25 0.69 772.59 0.69L772.59 0.69ZM740.58 0L772.59 0L772.59 0Q773.90 0 774.49-0.59L774.49-0.59L774.49-0.59Q775.08-1.17 775.08-2.48L775.08-2.48L775.08-10.56L775.08-10.56Q775.08-11.87 774.49-12.45L774.49-12.45L774.49-12.45Q773.90-13.04 772.59-13.04L772.59-13.04L753.55-13.04L753.55-18.98L767.00-18.98L767.00-18.98Q768.32-18.98 768.90-19.56L768.90-19.56L768.90-19.56Q769.49-20.15 769.49-21.46L769.49-21.46L769.49-28.84L769.49-28.84Q769.49-30.15 768.90-30.74L768.90-30.74L768.90-30.74Q768.32-31.33 767.00-31.33L767.00-31.33L753.55-31.33L753.55-36.64L772.59-36.64L772.59-36.64Q773.90-36.64 774.49-37.23L774.49-37.23L774.49-37.23Q775.08-37.81 775.08-39.12L775.08-39.12L775.08-47.20L775.08-47.20Q775.08-48.51 774.49-49.09L774.49-49.09L774.49-49.09Q773.90-49.68 772.59-49.68L772.59-49.68L740.58-49.68L740.58-49.68Q739.27-49.68 738.68-49.09L738.68-49.09L738.68-49.09Q738.09-48.51 738.09-47.20L738.09-47.20L738.09-2.48L738.09-2.48Q738.09-1.17 738.68-0.59L738.68-0.59L738.68-0.59Q739.27 0 740.58 0L740.58 0ZM746.30-6.90L768.87-6.90L768.87-6.21L745.61-6.21L745.61-43.47L768.87-43.47L768.87-42.78L746.30-42.78L746.30-25.46L763.28-25.46L763.28-24.77L746.30-24.77L746.30-6.90ZM823.58-3.66L815.03-3.66L815.03-3.66Q813.30-3.66 812.58-4.42L812.58-4.42L812.58-4.42Q811.85-5.18 811.85-6.83L811.85-6.83L811.85-17.73L801.30-17.73L801.30-17.73Q799.64-17.73 798.88-18.46L798.88-18.46L798.88-18.46Q798.12-19.18 798.12-20.91L798.12-20.91L798.12-28.77L798.12-28.77Q798.12-30.43 798.88-31.19L798.88-31.19L798.88-31.19Q799.64-31.95 801.30-31.95L801.30-31.95L811.85-31.95L811.85-42.85L811.85-42.85Q811.85-44.51 812.58-45.26L812.58-45.26L812.58-45.26Q813.30-46.02 815.03-46.02L815.03-46.02L823.58-46.02L823.58-46.02Q825.24-46.02 826.00-45.26L826.00-45.26L826.00-45.26Q826.76-44.51 826.76-42.85L826.76-42.85L826.76-31.95L837.31-31.95L837.31-31.95Q838.97-31.95 839.73-31.22L839.73-31.22L839.73-31.22Q840.49-30.50 840.49-28.77L840.49-28.77L840.49-20.91L840.49-20.91Q840.49-19.18 839.73-18.46L839.73-18.46L839.73-18.46Q838.97-17.73 837.31-17.73L837.31-17.73L826.76-17.73L826.76-6.83L826.76-6.83Q826.76-5.18 826.03-4.42L826.03-4.42L826.03-4.42Q825.31-3.66 823.58-3.66L823.58-3.66ZM826.07-6.83L826.07-6.83L826.07-18.42L837.31-18.42L837.31-18.42Q838.63-18.42 839.21-19.01L839.21-19.01L839.21-19.01Q839.80-19.60 839.80-20.91L839.80-20.91L839.80-28.77L839.80-28.77Q839.80-30.08 839.21-30.67L839.21-30.67L839.21-30.67Q838.63-31.26 837.31-31.26L837.31-31.26L826.07-31.26L826.07-42.85L826.07-42.85Q826.07-44.16 825.48-44.75L825.48-44.75L825.48-44.75Q824.89-45.33 823.58-45.33L823.58-45.33L815.03-45.33L815.03-45.33Q813.72-45.33 813.13-44.75L813.13-44.75L813.13-44.75Q812.54-44.16 812.54-42.85L812.54-42.85L812.54-31.26L801.30-31.26L801.30-31.26Q799.99-31.26 799.40-30.67L799.40-30.67L799.40-30.67Q798.81-30.08 798.81-28.77L798.81-28.77L798.81-20.91L798.81-20.91Q798.81-19.60 799.40-19.01L799.40-19.01L799.40-19.01Q799.99-18.42 801.30-18.42L801.30-18.42L812.54-18.42L812.54-6.83L812.54-6.83Q812.54-5.52 813.13-4.93L813.13-4.93L813.13-4.93Q813.72-4.35 815.03-4.35L815.03-4.35L823.58-4.35L823.58-4.35Q824.89-4.35 825.48-4.93L825.48-4.93L825.48-4.93Q826.07-5.52 826.07-6.83ZM819.65-10.56L818.96-10.56L818.96-24.50L805.02-24.50L805.02-25.19L818.96-25.19L818.96-39.12L819.65-39.12L819.65-25.19L833.59-25.19L833.59-24.50L819.65-24.50L819.65-10.56ZM871.88-20.91L871.88-20.91L871.88-18.77L898.79-18.77L898.79-20.91L898.79-20.91Q898.79-22.77 898.48-24.36L898.48-24.36L898.48-24.36Q898.17-25.94 897.69-27.32L897.69-27.32L892.93-38.57L892.93-38.57Q892.17-40.37 891.34-41.57L891.34-41.57L891.34-41.57Q890.51-42.78 888.58-42.78L888.58-42.78L881.82-42.78L881.82-42.78Q879.75-42.78 878.92-41.57L878.92-41.57L878.92-41.57Q878.09-40.37 877.40-38.64L877.40-38.64L872.99-27.32L872.99-27.32Q872.50-25.94 872.19-24.36L872.19-24.36L872.19-24.36Q871.88-22.77 871.88-20.91ZM879.68-24.70L882.92-35.19L882.92-35.19Q883.20-35.81 883.51-36.09L883.51-36.09L883.51-36.09Q883.82-36.36 884.23-36.36L884.23-36.36L885.96-36.36L885.96-36.36Q886.37-36.36 886.68-36.09L886.68-36.09L886.68-36.09Q886.99-35.81 887.27-35.19L887.27-35.19L890.51-24.70L879.68-24.70ZM889.55-25.39L886.58-34.98L886.65-34.91L886.65-34.91Q886.51-35.19 886.37-35.43L886.37-35.43L886.37-35.43Q886.24-35.67 885.96-35.67L885.96-35.67L884.23-35.67L884.23-35.67Q883.96-35.67 883.82-35.43L883.82-35.43L883.82-35.43Q883.68-35.19 883.54-34.91L883.54-34.91L883.61-34.98L880.65-25.39L889.55-25.39ZM899.48-6.21L898.79-6.21L898.79-18.08L871.88-18.08L871.88-6.21L871.19-6.21L871.19-20.91L871.19-20.91Q871.19-22.84 871.50-24.46L871.50-24.46L871.50-24.46Q871.81-26.08 872.37-27.60L872.37-27.60L876.78-38.92L876.78-38.92Q877.54-40.85 878.51-42.16L878.51-42.16L878.51-42.16Q879.47-43.47 881.82-43.47L881.82-43.47L888.58-43.47L888.58-43.47Q890.86-43.47 891.79-42.16L891.79-42.16L891.79-42.16Q892.72-40.85 893.55-38.85L893.55-38.85L898.31-27.60L898.31-27.60Q898.86-26.08 899.17-24.46L899.17-24.46L899.17-24.46Q899.48-22.84 899.48-20.91L899.48-20.91L899.48-6.21ZM878.99-2.48L878.99-2.48L878.99-12.14L891.20-12.14L891.20-2.48L891.20-2.48Q891.20-1.17 891.86-0.59L891.86-0.59L891.86-0.59Q892.51 0 893.89 0L893.89 0L904.31 0L904.31 0Q905.62 0 906.21-0.59L906.21-0.59L906.21-0.59Q906.80-1.17 906.80-2.48L906.80-2.48L906.80-20.70L906.80-20.70Q906.80-22.77 906.14-25.46L906.14-25.46L906.14-25.46Q905.49-28.15 904.11-31.74L904.11-31.74L898.10-47.40L898.10-47.40Q897.69-48.58 896.83-49.13L896.83-49.13L896.83-49.13Q895.96-49.68 894.65-49.68L894.65-49.68L876.09-49.68L876.09-49.68Q874.71-49.68 873.85-49.13L873.85-49.13L873.85-49.13Q872.99-48.58 872.57-47.40L872.57-47.40L866.57-31.74L866.57-31.74Q865.19-28.15 864.54-25.46L864.54-25.46L864.54-25.46Q863.88-22.77 863.88-20.70L863.88-20.70L863.88-2.48L863.88-2.48Q863.88-1.17 864.47-0.59L864.47-0.59L864.47-0.59Q865.05 0 866.36 0L866.36 0L876.51 0L876.51 0Q877.82 0 878.40-0.59L878.40-0.59L878.40-0.59Q878.99-1.17 878.99-2.48ZM876.51 0.69L866.36 0.69L866.36 0.69Q864.71 0.69 863.95-0.07L863.95-0.07L863.95-0.07Q863.19-0.83 863.19-2.48L863.19-2.48L863.19-20.70L863.19-20.70Q863.19-22.84 863.85-25.56L863.85-25.56L863.85-25.56Q864.50-28.29 865.95-32.02L865.95-32.02L871.95-47.61L871.95-47.61Q872.44-49.06 873.44-49.71L873.44-49.71L873.44-49.71Q874.44-50.37 876.09-50.37L876.09-50.37L894.65-50.37L894.65-50.37Q896.24-50.37 897.24-49.71L897.24-49.71L897.24-49.71Q898.24-49.06 898.72-47.68L898.72-47.68L904.73-32.02L904.73-32.02Q906.18-28.29 906.83-25.56L906.83-25.56L906.83-25.56Q907.49-22.84 907.49-20.70L907.49-20.70L907.49-2.48L907.49-2.48Q907.49-0.83 906.73-0.07L906.73-0.07L906.73-0.07Q905.97 0.69 904.31 0.69L904.31 0.69L893.89 0.69L893.89 0.69Q892.17 0.69 891.34-0.10L891.34-0.10L891.34-0.10Q890.51-0.90 890.51-2.48L890.51-2.48L890.51-11.45L879.68-11.45L879.68-2.48L879.68-2.48Q879.68-0.83 878.92-0.07L878.92-0.07L878.92-0.07Q878.16 0.69 876.51 0.69L876.51 0.69ZM953.30-19.39L953.30-12.14L953.30-12.14Q953.30-5.93 949.30-2.62L949.30-2.62L949.30-2.62Q945.30 0.69 938.33 0.69L938.33 0.69L916.53 0.69L916.53 0.69Q914.87 0.69 914.11-0.07L914.11-0.07L914.11-0.07Q913.35-0.83 913.35-2.48L913.35-2.48L913.35-10.56L913.35-10.56Q913.35-12.21 914.11-12.97L914.11-12.97L914.11-12.97Q914.87-13.73 916.53-13.73L916.53-13.73L935.09-13.73L935.09-13.73Q935.64-13.73 935.92-14.15L935.92-14.15L935.92-14.15Q936.19-14.56 936.19-15.04L936.19-15.04L936.19-15.04Q936.19-15.80 935.92-16.21L935.92-16.21L935.92-16.21Q935.64-16.63 935.02-16.70L935.02-16.70L924.67-18.15L924.67-18.15Q919.49-18.91 916.42-21.56L916.42-21.56L916.42-21.56Q913.35-24.22 913.35-30.29L913.35-30.29L913.35-37.54L913.35-37.54Q913.35-43.75 917.32-47.06L917.32-47.06L917.32-47.06Q921.29-50.37 928.33-50.37L928.33-50.37L947.65-50.37L947.65-50.37Q949.30-50.37 950.06-49.61L950.06-49.61L950.06-49.61Q950.82-48.85 950.82-47.20L950.82-47.20L950.82-38.99L950.82-38.99Q950.82-37.33 950.06-36.57L950.06-36.57L950.06-36.57Q949.30-35.81 947.65-35.81L947.65-35.81L931.57-35.81L931.57-35.81Q931.02-35.81 930.71-35.40L930.71-35.40L930.71-35.40Q930.40-34.98 930.40-34.43L930.40-34.43L930.40-34.43Q930.40-33.81 930.71-33.40L930.71-33.40L930.71-33.40Q931.02-32.98 931.64-32.91L931.64-32.91L941.92-31.53L941.92-31.53Q947.09-30.77 950.20-28.12L950.20-28.12L950.20-28.12Q953.30-25.46 953.30-19.39L953.30-19.39ZM916.53 0L938.33 0L938.33 0Q944.95 0 948.78-3.14L948.78-3.14L948.78-3.14Q952.61-6.28 952.61-12.14L952.61-12.14L952.61-19.39L952.61-19.39Q952.61-25.19 949.65-27.67L949.65-27.67L949.65-27.67Q946.68-30.15 941.85-30.84L941.85-30.84L931.57-32.22L931.57-32.22Q930.67-32.29 930.19-32.91L930.19-32.91L930.19-32.91Q929.71-33.53 929.71-34.43L929.71-34.43L929.71-34.43Q929.71-35.33 930.19-35.91L930.19-35.91L930.19-35.91Q930.67-36.50 931.57-36.50L931.57-36.50L947.65-36.50L947.65-36.50Q948.96-36.50 949.54-37.09L949.54-37.09L949.54-37.09Q950.13-37.67 950.13-38.99L950.13-38.99L950.13-47.20L950.13-47.20Q950.13-48.51 949.54-49.09L949.54-49.09L949.54-49.09Q948.96-49.68 947.65-49.68L947.65-49.68L928.33-49.68L928.33-49.68Q921.63-49.68 917.84-46.54L917.84-46.54L917.84-46.54Q914.04-43.40 914.04-37.54L914.04-37.54L914.04-30.29L914.04-30.29Q914.04-24.50 916.98-22.01L916.98-22.01L916.98-22.01Q919.91-19.53 924.74-18.84L924.74-18.84L935.09-17.39L935.09-17.39Q935.98-17.32 936.43-16.77L936.43-16.77L936.43-16.77Q936.88-16.21 936.88-15.04L936.88-15.04L936.88-15.04Q936.88-14.21 936.43-13.63L936.43-13.63L936.43-13.63Q935.98-13.04 935.09-13.04L935.09-13.04L916.53-13.04L916.53-13.04Q915.22-13.04 914.63-12.45L914.63-12.45L914.63-12.45Q914.04-11.87 914.04-10.56L914.04-10.56L914.04-2.48L914.04-2.48Q914.04-1.17 914.63-0.59L914.63-0.59L914.63-0.59Q915.22 0 916.53 0L916.53 0ZM928.60-43.47L943.92-43.47L943.92-42.78L928.60-42.78L928.60-42.78Q925.70-42.78 923.98-41.19L923.98-41.19L923.98-41.19Q922.25-39.61 922.25-37.19L922.25-37.19L922.25-31.53L922.25-31.53Q922.25-29.12 923.22-28.15L923.22-28.15L923.22-28.15Q924.19-27.19 925.77-26.91L925.77-26.91L940.33-23.94L940.33-23.94Q942.40-23.53 943.75-22.15L943.75-22.15L943.75-22.15Q945.09-20.77 945.09-17.18L945.09-17.18L945.09-13.18L945.09-13.18Q945.09-10.14 943.02-8.18L943.02-8.18L943.02-8.18Q940.95-6.21 937.43-6.21L937.43-6.21L920.25-6.21L920.25-6.90L937.43-6.90L937.43-6.90Q940.61-6.90 942.51-8.66L942.51-8.66L942.51-8.66Q944.40-10.42 944.40-13.18L944.40-13.18L944.40-17.18L944.40-17.18Q944.40-20.42 943.26-21.63L943.26-21.63L943.26-21.63Q942.13-22.84 940.19-23.25L940.19-23.25L925.63-26.22L925.63-26.22Q923.84-26.57 922.70-27.63L922.70-27.63L922.70-27.63Q921.56-28.70 921.56-31.53L921.56-31.53L921.56-37.19L921.56-37.19Q921.56-39.95 923.50-41.71L923.50-41.71L923.50-41.71Q925.43-43.47 928.60-43.47L928.60-43.47ZM985.32 0.69L974.14 0.69L974.14 0.69Q972.42 0.69 971.69-0.07L971.69-0.07L971.69-0.07Q970.97-0.83 970.97-2.48L970.97-2.48L970.97-11.11L960.55-25.05L960.55-25.05Q958.89-27.26 958.34-28.91L958.34-28.91L958.34-28.91Q957.79-30.57 957.79-33.95L957.79-33.95L957.79-47.20L957.79-47.20Q957.79-48.85 958.55-49.61L958.55-49.61L958.55-49.61Q959.31-50.37 960.96-50.37L960.96-50.37L971.59-50.37L971.59-50.37Q973.24-50.37 974.00-49.61L974.00-49.61L974.00-49.61Q974.76-48.85 974.76-47.20L974.76-47.20L974.76-35.88L974.76-35.88Q974.76-35.26 974.83-34.64L974.83-34.64L974.83-34.64Q974.90-34.02 975.25-33.33L975.25-33.33L978.49-28.36L978.49-28.36Q978.70-27.95 978.94-27.74L978.94-27.74L978.94-27.74Q979.18-27.53 979.52-27.53L979.52-27.53L980.21-27.53L980.21-27.53Q980.56-27.53 980.80-27.74L980.80-27.74L980.80-27.74Q981.04-27.95 981.32-28.36L981.32-28.36L984.49-33.33L984.49-33.33Q984.84-34.02 984.91-34.64L984.91-34.64L984.91-34.64Q984.97-35.26 984.97-35.88L984.97-35.88L984.97-47.20L984.97-47.20Q984.97-48.85 985.73-49.61L985.73-49.61L985.73-49.61Q986.49-50.37 988.15-50.37L988.15-50.37L998.43-50.37L998.43-50.37Q1000.09-50.37 1000.84-49.61L1000.84-49.61L1000.84-49.61Q1001.60-48.85 1001.60-47.20L1001.60-47.20L1001.60-33.95L1001.60-33.95Q1001.60-30.57 1001.05-28.91L1001.05-28.91L1001.05-28.91Q1000.50-27.26 998.84-25.05L998.84-25.05L988.49-11.04L988.49-2.48L988.49-2.48Q988.49-0.83 987.73-0.07L987.73-0.07L987.73-0.07Q986.98 0.69 985.32 0.69L985.32 0.69ZM974.14 0L985.32 0L985.32 0Q986.63 0 987.22-0.59L987.22-0.59L987.22-0.59Q987.80-1.17 987.80-2.48L987.80-2.48L987.80-11.25L998.29-25.46L998.29-25.46Q999.81-27.60 1000.36-29.19L1000.36-29.19L1000.36-29.19Q1000.91-30.77 1000.91-33.95L1000.91-33.95L1000.91-47.20L1000.91-47.20Q1000.91-48.51 1000.33-49.09L1000.33-49.09L1000.33-49.09Q999.74-49.68 998.43-49.68L998.43-49.68L988.15-49.68L988.15-49.68Q986.84-49.68 986.25-49.09L986.25-49.09L986.25-49.09Q985.66-48.51 985.66-47.20L985.66-47.20L985.66-35.88L985.66-35.88Q985.66-35.19 985.60-34.43L985.60-34.43L985.60-34.43Q985.53-33.67 985.04-32.98L985.04-32.98L981.87-28.01L981.87-28.01Q981.52-27.39 981.15-27.12L981.15-27.12L981.15-27.12Q980.77-26.84 980.21-26.84L980.21-26.84L979.52-26.84L979.52-26.84Q978.97-26.84 978.59-27.12L978.59-27.12L978.59-27.12Q978.21-27.39 977.87-28.01L977.87-28.01L974.69-32.98L974.69-32.98Q974.21-33.67 974.14-34.43L974.14-34.43L974.14-34.43Q974.07-35.19 974.07-35.88L974.07-35.88L974.07-47.20L974.07-47.20Q974.07-48.51 973.49-49.09L973.49-49.09L973.49-49.09Q972.90-49.68 971.59-49.68L971.59-49.68L960.96-49.68L960.96-49.68Q959.65-49.68 959.07-49.09L959.07-49.09L959.07-49.09Q958.48-48.51 958.48-47.20L958.48-47.20L958.48-33.95L958.48-33.95Q958.48-30.77 959.00-29.19L959.00-29.19L959.00-29.19Q959.51-27.60 961.10-25.46L961.10-25.46L971.66-11.32L971.66-2.48L971.66-2.48Q971.66-1.17 972.24-0.59L972.24-0.59L972.24-0.59Q972.83 0 974.14 0L974.14 0ZM980.56-18.01L980.56-18.01L980.08-18.01L980.08-6.21L979.39-6.21L979.39-18.01L978.70-18.01L978.70-18.01Q977.18-18.01 975.97-18.70L975.97-18.70L975.97-18.70Q974.76-19.39 973.66-20.91L973.66-20.91L966.97-30.22L966.97-30.22Q966.21-31.26 966.07-32.64L966.07-32.64L966.07-32.64Q965.93-34.02 965.93-35.54L965.93-35.54L965.93-43.47L966.62-43.47L966.62-35.54L966.62-35.54Q966.62-34.09 966.76-32.81L966.76-32.81L966.76-32.81Q966.90-31.53 967.59-30.50L967.59-30.50L974.28-21.18L974.28-21.18Q975.18-19.80 976.35-19.25L976.35-19.25L976.35-19.25Q977.52-18.70 978.70-18.70L978.70-18.70L980.56-18.70L980.56-18.70Q981.87-18.70 982.94-19.29L982.94-19.29L982.94-19.29Q984.01-19.87 985.04-21.18L985.04-21.18L991.94-30.50L991.94-30.50Q992.63-31.40 992.77-32.74L992.77-32.74L992.77-32.74Q992.91-34.09 992.91-35.54L992.91-35.54L992.91-43.47L993.60-43.47L993.60-35.54L993.60-35.54Q993.60-34.02 993.50-32.67L993.50-32.67L993.50-32.67Q993.39-31.33 992.56-30.22L992.56-30.22L985.66-20.91L985.66-20.91Q984.56-19.39 983.35-18.70L983.35-18.70L983.35-18.70Q982.15-18.01 980.56-18.01ZM1017.89-42.92L1017.89-42.92L1043.28-14.35L1043.28-43.47L1043.97-43.47L1043.97-6.21L1043.28-6.21L1043.28-13.32L1017.20-42.57L1017.20-42.57Q1017.13-42.64 1017.03-42.71L1017.03-42.71L1017.03-42.71Q1016.92-42.78 1016.85-42.78L1016.85-42.78L1016.85-42.78Q1016.78-42.78 1016.75-42.71L1016.75-42.71L1016.75-42.71Q1016.71-42.64 1016.71-42.57L1016.71-42.57L1016.71-6.21L1016.02-6.21L1016.02-42.71L1016.02-42.71Q1016.02-43.13 1016.30-43.33L1016.30-43.33L1016.30-43.33Q1016.58-43.54 1016.85-43.54L1016.85-43.54L1016.85-43.54Q1017.13-43.54 1017.34-43.40L1017.34-43.40L1017.34-43.40Q1017.54-43.26 1017.89-42.92ZM1011.26 0L1021.61 0L1021.61 0Q1022.92 0 1023.51-0.59L1023.51-0.59L1023.51-0.59Q1024.10-1.17 1024.10-2.48L1024.10-2.48L1024.10-25.25L1035.90-10.97L1035.90-2.48L1035.90-2.48Q1035.90-1.17 1036.48-0.59L1036.48-0.59L1036.48-0.59Q1037.07 0 1038.38 0L1038.38 0L1048.73 0L1048.73 0Q1050.04 0 1050.63-0.59L1050.63-0.59L1050.63-0.59Q1051.21-1.17 1051.21-2.48L1051.21-2.48L1051.21-47.20L1051.21-47.20Q1051.21-48.51 1050.63-49.09L1050.63-49.09L1050.63-49.09Q1050.04-49.68 1048.73-49.68L1048.73-49.68L1038.38-49.68L1038.38-49.68Q1037.07-49.68 1036.48-49.09L1036.48-49.09L1036.48-49.09Q1035.90-48.51 1035.90-47.20L1035.90-47.20L1035.90-32.50L1022.51-47.82L1022.51-47.82Q1021.61-48.85 1020.68-49.27L1020.68-49.27L1020.68-49.27Q1019.75-49.68 1018.44-49.68L1018.44-49.68L1011.26-49.68L1011.26-49.68Q1009.95-49.68 1009.37-49.09L1009.37-49.09L1009.37-49.09Q1008.78-48.51 1008.78-47.20L1008.78-47.20L1008.78-2.48L1008.78-2.48Q1008.78-1.17 1009.37-0.59L1009.37-0.59L1009.37-0.59Q1009.95 0 1011.26 0L1011.26 0ZM1021.61 0.69L1021.61 0.69L1011.26 0.69L1011.26 0.69Q1009.61 0.69 1008.85-0.07L1008.85-0.07L1008.85-0.07Q1008.09-0.83 1008.09-2.48L1008.09-2.48L1008.09-47.20L1008.09-47.20Q1008.09-48.85 1008.85-49.61L1008.85-49.61L1008.85-49.61Q1009.61-50.37 1011.26-50.37L1011.26-50.37L1018.44-50.37L1018.44-50.37Q1019.96-50.37 1020.99-49.89L1020.99-49.89L1020.99-49.89Q1022.03-49.40 1023.06-48.30L1023.06-48.30L1035.21-34.43L1035.21-47.20L1035.21-47.20Q1035.21-48.85 1035.97-49.61L1035.97-49.61L1035.97-49.61Q1036.72-50.37 1038.38-50.37L1038.38-50.37L1048.73-50.37L1048.73-50.37Q1050.39-50.37 1051.15-49.61L1051.15-49.61L1051.15-49.61Q1051.90-48.85 1051.90-47.20L1051.90-47.20L1051.90-2.48L1051.90-2.48Q1051.90-0.83 1051.15-0.07L1051.15-0.07L1051.15-0.07Q1050.39 0.69 1048.73 0.69L1048.73 0.69L1038.38 0.69L1038.38 0.69Q1036.72 0.69 1035.97-0.07L1035.97-0.07L1035.97-0.07Q1035.21-0.83 1035.21-2.48L1035.21-2.48L1035.21-10.70L1024.79-23.32L1024.79-2.48L1024.79-2.48Q1024.79-0.83 1024.03-0.07L1024.03-0.07L1024.03-0.07Q1023.27 0.69 1021.61 0.69ZM1096.96-10.70L1096.96-2.48L1096.96-2.48Q1096.96-0.83 1096.20-0.07L1096.20-0.07L1096.20-0.07Q1095.44 0.69 1093.79 0.69L1093.79 0.69L1076.95 0.69L1076.95 0.69Q1067.91 0.69 1063.60-2.97L1063.60-2.97L1063.60-2.97Q1059.29-6.62 1059.29-14.08L1059.29-14.08L1059.29-35.54L1059.29-35.54Q1059.29-43.06 1063.60-46.71L1063.60-46.71L1063.60-46.71Q1067.91-50.37 1076.95-50.37L1076.95-50.37L1093.79-50.37L1093.79-50.37Q1095.44-50.37 1096.20-49.61L1096.20-49.61L1096.20-49.61Q1096.96-48.85 1096.96-47.20L1096.96-47.20L1096.96-38.85L1096.96-38.85Q1096.96-37.19 1096.20-36.43L1096.20-36.43L1096.20-36.43Q1095.44-35.67 1093.79-35.67L1093.79-35.67L1079.92-35.67L1079.92-35.67Q1078.19-35.67 1077.30-35.02L1077.30-35.02L1077.30-35.02Q1076.40-34.36 1076.40-32.91L1076.40-32.91L1076.40-16.49L1076.40-16.49Q1076.40-15.04 1077.30-14.46L1077.30-14.46L1077.30-14.46Q1078.19-13.87 1079.92-13.87L1079.92-13.87L1093.79-13.87L1093.79-13.87Q1095.44-13.87 1096.20-13.11L1096.20-13.11L1096.20-13.11Q1096.96-12.35 1096.96-10.70L1096.96-10.70ZM1076.95 0L1093.79 0L1093.79 0Q1095.10 0 1095.69-0.59L1095.69-0.59L1095.69-0.59Q1096.27-1.17 1096.27-2.48L1096.27-2.48L1096.27-10.70L1096.27-10.70Q1096.27-12.01 1095.69-12.59L1095.69-12.59L1095.69-12.59Q1095.10-13.18 1093.79-13.18L1093.79-13.18L1079.92-13.18L1079.92-13.18Q1077.78-13.18 1076.74-13.97L1076.74-13.97L1076.74-13.97Q1075.71-14.77 1075.71-16.49L1075.71-16.49L1075.71-32.91L1075.71-32.91Q1075.71-34.64 1076.74-35.50L1076.74-35.50L1076.74-35.50Q1077.78-36.36 1079.92-36.36L1079.92-36.36L1093.79-36.36L1093.79-36.36Q1095.10-36.36 1095.69-36.95L1095.69-36.95L1095.69-36.95Q1096.27-37.54 1096.27-38.85L1096.27-38.85L1096.27-47.20L1096.27-47.20Q1096.27-48.51 1095.69-49.09L1095.69-49.09L1095.69-49.09Q1095.10-49.68 1093.79-49.68L1093.79-49.68L1076.95-49.68L1076.95-49.68Q1068.33-49.68 1064.15-46.20L1064.15-46.20L1064.15-46.20Q1059.98-42.71 1059.98-35.54L1059.98-35.54L1059.98-14.08L1059.98-14.08Q1059.98-6.90 1064.15-3.45L1064.15-3.45L1064.15-3.45Q1068.33 0 1076.95 0L1076.95 0ZM1078.47-6.90L1089.99-6.90L1089.99-6.21L1078.47-6.21L1078.47-6.21Q1071.78-6.21 1069.60-8.28L1069.60-8.28L1069.60-8.28Q1067.43-10.35 1067.43-15.11L1067.43-15.11L1067.43-34.43L1067.43-34.43Q1067.43-39.33 1069.64-41.40L1069.64-41.40L1069.64-41.40Q1071.85-43.47 1078.47-43.47L1078.47-43.47L1089.99-43.47L1089.99-42.78L1078.47-42.78L1078.47-42.78Q1072.40-42.78 1070.26-40.88L1070.26-40.88L1070.26-40.88Q1068.12-38.99 1068.12-34.43L1068.12-34.43L1068.12-15.11L1068.12-15.11Q1068.12-10.63 1070.19-8.76L1070.19-8.76L1070.19-8.76Q1072.26-6.90 1078.47-6.90L1078.47-6.90ZM1158.17-28.08L1158.17-28.08L1122.15-28.08L1122.15-28.08Q1120.49-28.08 1119.73-28.81L1119.73-28.81L1119.73-28.81Q1118.97-29.53 1118.97-31.26L1118.97-31.26L1118.97-39.12L1118.97-39.12Q1118.97-40.78 1119.73-41.54L1119.73-41.54L1119.73-41.54Q1120.49-42.30 1122.15-42.30L1122.15-42.30L1158.17-42.30L1158.17-42.30Q1159.82-42.30 1160.58-41.57L1160.58-41.57L1160.58-41.57Q1161.34-40.85 1161.34-39.12L1161.34-39.12L1161.34-31.26L1161.34-31.26Q1161.34-29.53 1160.58-28.81L1160.58-28.81L1160.58-28.81Q1159.82-28.08 1158.17-28.08ZM1122.15-28.77L1122.15-28.77L1158.17-28.77L1158.17-28.77Q1159.48-28.77 1160.06-29.36L1160.06-29.36L1160.06-29.36Q1160.65-29.95 1160.65-31.26L1160.65-31.26L1160.65-39.12L1160.65-39.12Q1160.65-40.43 1160.06-41.02L1160.06-41.02L1160.06-41.02Q1159.48-41.61 1158.17-41.61L1158.17-41.61L1122.15-41.61L1122.15-41.61Q1120.84-41.61 1120.25-41.02L1120.25-41.02L1120.25-41.02Q1119.66-40.43 1119.66-39.12L1119.66-39.12L1119.66-31.26L1119.66-31.26Q1119.66-29.95 1120.25-29.36L1120.25-29.36L1120.25-29.36Q1120.84-28.77 1122.15-28.77ZM1154.44-34.85L1125.87-34.85L1125.87-35.54L1154.44-35.54L1154.44-34.85ZM1158.17-7.38L1158.17-7.38L1122.15-7.38L1122.15-7.38Q1120.49-7.38 1119.73-8.11L1119.73-8.11L1119.73-8.11Q1118.97-8.83 1118.97-10.56L1118.97-10.56L1118.97-18.42L1118.97-18.42Q1118.97-20.08 1119.73-20.84L1119.73-20.84L1119.73-20.84Q1120.49-21.60 1122.15-21.60L1122.15-21.60L1158.17-21.60L1158.17-21.60Q1159.82-21.60 1160.58-20.87L1160.58-20.87L1160.58-20.87Q1161.34-20.15 1161.34-18.42L1161.34-18.42L1161.34-10.56L1161.34-10.56Q1161.34-8.83 1160.58-8.11L1160.58-8.11L1160.58-8.11Q1159.82-7.38 1158.17-7.38ZM1122.15-8.07L1122.15-8.07L1158.17-8.07L1158.17-8.07Q1159.48-8.07 1160.06-8.66L1160.06-8.66L1160.06-8.66Q1160.65-9.25 1160.65-10.56L1160.65-10.56L1160.65-18.42L1160.65-18.42Q1160.65-19.73 1160.06-20.32L1160.06-20.32L1160.06-20.32Q1159.48-20.91 1158.17-20.91L1158.17-20.91L1122.15-20.91L1122.15-20.91Q1120.84-20.91 1120.25-20.32L1120.25-20.32L1120.25-20.32Q1119.66-19.73 1119.66-18.42L1119.66-18.42L1119.66-10.56L1119.66-10.56Q1119.66-9.25 1120.25-8.66L1120.25-8.66L1120.25-8.66Q1120.84-8.07 1122.15-8.07ZM1154.44-14.15L1125.87-14.15L1125.87-14.84L1154.44-14.84L1154.44-14.15ZM1223.72 0.69L1201.98 0.69L1201.98 0.69Q1192.94 0.69 1188.63-2.97L1188.63-2.97L1188.63-2.97Q1184.32-6.62 1184.32-14.08L1184.32-14.08L1184.32-35.60L1184.32-35.60Q1184.32-43.06 1188.63-46.71L1188.63-46.71L1188.63-46.71Q1192.94-50.37 1201.98-50.37L1201.98-50.37L1219.23-50.37L1219.23-50.37Q1220.89-50.37 1221.65-49.61L1221.65-49.61L1221.65-49.61Q1222.40-48.85 1222.40-47.20L1222.40-47.20L1222.40-38.85L1222.40-38.85Q1222.40-37.19 1221.65-36.43L1221.65-36.43L1221.65-36.43Q1220.89-35.67 1219.23-35.67L1219.23-35.67L1204.88-35.67L1204.88-35.67Q1203.15-35.67 1202.26-35.02L1202.26-35.02L1202.26-35.02Q1201.36-34.36 1201.36-32.91L1201.36-32.91L1201.36-16.42L1201.36-16.42Q1201.36-15.04 1201.95-14.39L1201.95-14.39L1201.95-14.39Q1202.53-13.73 1203.84-13.73L1203.84-13.73L1209.85-13.73L1209.85-23.81L1209.85-23.81Q1209.85-25.46 1210.61-26.22L1210.61-26.22L1210.61-26.22Q1211.36-26.98 1213.02-26.98L1213.02-26.98L1223.72-26.98L1223.72-26.98Q1225.37-26.98 1226.13-26.22L1226.13-26.22L1226.13-26.22Q1226.89-25.46 1226.89-23.81L1226.89-23.81L1226.89-2.48L1226.89-2.48Q1226.89-0.83 1226.13-0.07L1226.13-0.07L1226.13-0.07Q1225.37 0.69 1223.72 0.69L1223.72 0.69ZM1201.98 0L1223.72 0L1223.72 0Q1225.03 0 1225.61-0.59L1225.61-0.59L1225.61-0.59Q1226.20-1.17 1226.20-2.48L1226.20-2.48L1226.20-23.81L1226.20-23.81Q1226.20-25.12 1225.61-25.70L1225.61-25.70L1225.61-25.70Q1225.03-26.29 1223.72-26.29L1223.72-26.29L1213.02-26.29L1213.02-26.29Q1211.71-26.29 1211.12-25.70L1211.12-25.70L1211.12-25.70Q1210.54-25.12 1210.54-23.81L1210.54-23.81L1210.54-13.04L1203.84-13.04L1203.84-13.04Q1202.26-13.04 1201.46-13.87L1201.46-13.87L1201.46-13.87Q1200.67-14.70 1200.67-16.42L1200.67-16.42L1200.67-32.91L1200.67-32.91Q1200.67-34.64 1201.70-35.50L1201.70-35.50L1201.70-35.50Q1202.74-36.36 1204.88-36.36L1204.88-36.36L1219.23-36.36L1219.23-36.36Q1220.54-36.36 1221.13-36.95L1221.13-36.95L1221.13-36.95Q1221.71-37.54 1221.71-38.85L1221.71-38.85L1221.71-47.20L1221.71-47.20Q1221.71-48.51 1221.13-49.09L1221.13-49.09L1221.13-49.09Q1220.54-49.68 1219.23-49.68L1219.23-49.68L1201.98-49.68L1201.98-49.68Q1193.36-49.68 1189.18-46.23L1189.18-46.23L1189.18-46.23Q1185.01-42.78 1185.01-35.60L1185.01-35.60L1185.01-14.08L1185.01-14.08Q1185.01-6.90 1189.18-3.45L1189.18-3.45L1189.18-3.45Q1193.36 0 1201.98 0L1201.98 0ZM1218.68-6.21L1204.95-6.21L1204.95-6.21Q1201.15-6.21 1198.74-6.69L1198.74-6.69L1198.74-6.69Q1196.32-7.18 1194.94-8.25L1194.94-8.25L1194.94-8.25Q1193.56-9.32 1193.04-11.01L1193.04-11.01L1193.04-11.01Q1192.53-12.70 1192.53-15.11L1192.53-15.11L1192.53-34.43L1192.53-34.43Q1192.53-39.33 1194.74-41.40L1194.74-41.40L1194.74-41.40Q1196.94-43.47 1203.57-43.47L1203.57-43.47L1215.50-43.47L1215.50-42.78L1203.57-42.78L1203.57-42.78Q1197.50-42.78 1195.36-40.88L1195.36-40.88L1195.36-40.88Q1193.22-38.99 1193.22-34.43L1193.22-34.43L1193.22-15.11L1193.22-15.11Q1193.22-10.63 1195.60-8.76L1195.60-8.76L1195.60-8.76Q1197.98-6.90 1204.95-6.90L1204.95-6.90L1217.99-6.90L1217.99-20.08L1218.68-20.08L1218.68-6.21ZM1277.40-36.57L1277.40-36.57L1277.40-13.04L1277.40-13.04Q1277.40-9.80 1276.50-7.07L1276.50-7.07L1276.50-7.07Q1275.60-4.35 1273.15-2.42L1273.15-2.42L1273.15-2.42Q1270.70-0.48 1266.39 0.62L1266.39 0.62L1266.39 0.62Q1262.08 1.73 1255.32 1.73L1255.32 1.73L1255.32 1.73Q1248.56 1.73 1244.24 0.62L1244.24 0.62L1244.24 0.62Q1239.93-0.48 1237.48-2.42L1237.48-2.42L1237.48-2.42Q1235.03-4.35 1234.10-7.07L1234.10-7.07L1234.10-7.07Q1233.17-9.80 1233.17-13.04L1233.17-13.04L1233.17-36.57L1233.17-36.57Q1233.17-39.81 1234.10-42.54L1234.10-42.54L1234.10-42.54Q1235.03-45.26 1237.48-47.23L1237.48-47.23L1237.48-47.23Q1239.93-49.20 1244.24-50.30L1244.24-50.30L1244.24-50.30Q1248.56-51.41 1255.32-51.41L1255.32-51.41L1255.32-51.41Q1262.08-51.41 1266.39-50.30L1266.39-50.30L1266.39-50.30Q1270.70-49.20 1273.15-47.23L1273.15-47.23L1273.15-47.23Q1275.60-45.26 1276.50-42.54L1276.50-42.54L1276.50-42.54Q1277.40-39.81 1277.40-36.57ZM1276.71-13.04L1276.71-13.04L1276.71-36.57L1276.71-36.57Q1276.71-39.74 1275.78-42.33L1275.78-42.33L1275.78-42.33Q1274.84-44.92 1272.46-46.78L1272.46-46.78L1272.46-46.78Q1270.08-48.65 1265.91-49.68L1265.91-49.68L1265.91-49.68Q1261.73-50.72 1255.32-50.72L1255.32-50.72L1255.32-50.72Q1248.90-50.72 1244.69-49.68L1244.69-49.68L1244.69-49.68Q1240.48-48.65 1238.10-46.78L1238.10-46.78L1238.10-46.78Q1235.72-44.92 1234.79-42.33L1234.79-42.33L1234.79-42.33Q1233.86-39.74 1233.86-36.57L1233.86-36.57L1233.86-13.04L1233.86-13.04Q1233.86-9.87 1234.79-7.28L1234.79-7.28L1234.79-7.28Q1235.72-4.69 1238.10-2.86L1238.10-2.86L1238.10-2.86Q1240.48-1.04 1244.69 0L1244.69 0L1244.69 0Q1248.90 1.04 1255.32 1.04L1255.32 1.04L1255.32 1.04Q1261.73 1.04 1265.91 0L1265.91 0L1265.91 0Q1270.08-1.04 1272.46-2.86L1272.46-2.86L1272.46-2.86Q1274.84-4.69 1275.78-7.28L1275.78-7.28L1275.78-7.28Q1276.71-9.87 1276.71-13.04ZM1269.19-34.98L1269.19-14.63L1269.19-14.63Q1269.19-10.49 1266.22-7.90L1266.22-7.90L1266.22-7.90Q1263.25-5.31 1255.18-5.31L1255.18-5.31L1255.18-5.31Q1247.11-5.31 1244.21-7.90L1244.21-7.90L1244.21-7.90Q1241.31-10.49 1241.31-14.63L1241.31-14.63L1241.31-34.98L1241.31-34.98Q1241.31-39.12 1244.21-41.71L1244.21-41.71L1244.21-41.71Q1247.11-44.30 1255.18-44.30L1255.18-44.30L1255.18-44.30Q1263.25-44.30 1266.22-41.71L1266.22-41.71L1266.22-41.71Q1269.19-39.12 1269.19-34.98L1269.19-34.98ZM1242.00-34.98L1242.00-14.63L1242.00-14.63Q1242.00-10.76 1244.76-8.38L1244.76-8.38L1244.76-8.38Q1247.52-6.00 1255.18-6.00L1255.18-6.00L1255.18-6.00Q1262.84-6.00 1265.67-8.38L1265.67-8.38L1265.67-8.38Q1268.50-10.76 1268.50-14.63L1268.50-14.63L1268.50-34.98L1268.50-34.98Q1268.50-38.85 1265.67-41.23L1265.67-41.23L1265.67-41.23Q1262.84-43.61 1255.18-43.61L1255.18-43.61L1255.18-43.61Q1247.52-43.61 1244.76-41.23L1244.76-41.23L1244.76-41.23Q1242.00-38.85 1242.00-34.98L1242.00-34.98ZM1249.52-15.53L1249.52-15.53L1249.52-34.09L1249.52-34.09Q1249.52-35.40 1250.56-36.33L1250.56-36.33L1250.56-36.33Q1251.59-37.26 1255.32-37.26L1255.32-37.26L1255.32-37.26Q1259.04-37.26 1260.08-36.33L1260.08-36.33L1260.08-36.33Q1261.11-35.40 1261.11-34.09L1261.11-34.09L1261.11-15.53L1261.11-15.53Q1261.11-14.15 1260.08-13.21L1260.08-13.21L1260.08-13.21Q1259.04-12.28 1255.32-12.28L1255.32-12.28L1255.32-12.28Q1251.59-12.28 1250.56-13.21L1250.56-13.21L1250.56-13.21Q1249.52-14.15 1249.52-15.53ZM1250.21-34.09L1250.21-34.09L1250.21-15.53L1250.21-15.53Q1250.21-14.28 1251.28-13.63L1251.28-13.63L1251.28-13.63Q1252.35-12.97 1255.32-12.97L1255.32-12.97L1255.32-12.97Q1258.28-12.97 1259.35-13.63L1259.35-13.63L1259.35-13.63Q1260.42-14.28 1260.42-15.53L1260.42-15.53L1260.42-34.09L1260.42-34.09Q1260.42-35.26 1259.35-35.91L1259.35-35.91L1259.35-35.91Q1258.28-36.57 1255.32-36.57L1255.32-36.57L1255.32-36.57Q1252.42-36.57 1251.32-35.91L1251.32-35.91L1251.32-35.91Q1250.21-35.26 1250.21-34.09ZM1328.87-35.60L1328.87-14.08L1328.87-14.08Q1328.87-6.62 1324.56-2.97L1324.56-2.97L1324.56-2.97Q1320.25 0.69 1311.21 0.69L1311.21 0.69L1287.95 0.69L1287.95 0.69Q1286.30 0.69 1285.54-0.07L1285.54-0.07L1285.54-0.07Q1284.78-0.83 1284.78-2.48L1284.78-2.48L1284.78-47.20L1284.78-47.20Q1284.78-48.85 1285.54-49.61L1285.54-49.61L1285.54-49.61Q1286.30-50.37 1287.95-50.37L1287.95-50.37L1311.21-50.37L1311.21-50.37Q1320.25-50.37 1324.56-46.71L1324.56-46.71L1324.56-46.71Q1328.87-43.06 1328.87-35.60L1328.87-35.60ZM1287.95 0L1311.21 0L1311.21 0Q1319.83 0 1324.01-3.45L1324.01-3.45L1324.01-3.45Q1328.18-6.90 1328.18-14.08L1328.18-14.08L1328.18-35.60L1328.18-35.60Q1328.18-42.78 1324.01-46.23L1324.01-46.23L1324.01-46.23Q1319.83-49.68 1311.21-49.68L1311.21-49.68L1287.95-49.68L1287.95-49.68Q1286.64-49.68 1286.06-49.09L1286.06-49.09L1286.06-49.09Q1285.47-48.51 1285.47-47.20L1285.47-47.20L1285.47-2.48L1285.47-2.48Q1285.47-1.17 1286.06-0.59L1286.06-0.59L1286.06-0.59Q1286.64 0 1287.95 0L1287.95 0ZM1309.69-6.21L1292.99-6.21L1292.99-43.47L1309.69-43.47L1309.69-43.47Q1313.21-43.47 1315.38-42.71L1315.38-42.71L1315.38-42.71Q1317.56-41.95 1318.73-40.68L1318.73-40.68L1318.73-40.68Q1319.90-39.40 1320.32-37.64L1320.32-37.64L1320.32-37.64Q1320.73-35.88 1320.73-33.88L1320.73-33.88L1320.73-15.59L1320.73-15.59Q1320.73-13.59 1320.35-11.87L1320.35-11.87L1320.35-11.87Q1319.97-10.14 1318.80-8.90L1318.80-8.90L1318.80-8.90Q1317.62-7.66 1315.42-6.93L1315.42-6.93L1315.42-6.93Q1313.21-6.21 1309.69-6.21L1309.69-6.21ZM1309.69-42.78L1309.69-42.78L1293.68-42.78L1293.68-6.90L1309.69-6.90L1309.69-6.90Q1313.00-6.90 1315.04-7.56L1315.04-7.56L1315.04-7.56Q1317.07-8.21 1318.18-9.35L1318.18-9.35L1318.18-9.35Q1319.28-10.49 1319.66-12.11L1319.66-12.11L1319.66-12.11Q1320.04-13.73 1320.04-15.59L1320.04-15.59L1320.04-33.88L1320.04-33.88Q1320.04-35.74 1319.63-37.40L1319.63-37.40L1319.63-37.40Q1319.21-39.05 1318.11-40.23L1318.11-40.23L1318.11-40.23Q1317.00-41.40 1314.97-42.09L1314.97-42.09L1314.97-42.09Q1312.93-42.78 1309.69-42.78ZM1301.13-13.04L1301.13-36.50L1309.34-36.50L1309.34-36.50Q1311.00-36.50 1311.79-35.71L1311.79-35.71L1311.79-35.71Q1312.59-34.91 1312.59-33.19L1312.59-33.19L1312.59-16.42L1312.59-16.42Q1312.59-14.70 1311.79-13.87L1311.79-13.87L1311.79-13.87Q1311.00-13.04 1309.34-13.04L1309.34-13.04L1301.13-13.04ZM1309.34-35.81L1309.34-35.81L1301.82-35.81L1301.82-13.73L1309.34-13.73L1309.34-13.73Q1310.66-13.73 1311.28-14.39L1311.28-14.39L1311.28-14.39Q1311.90-15.04 1311.90-16.42L1311.90-16.42L1311.90-33.19L1311.90-33.19Q1311.90-34.50 1311.28-35.16L1311.28-35.16L1311.28-35.16Q1310.66-35.81 1309.34-35.81ZM1376.76-26.57L1376.76-26.57L1376.76-26.57Q1378.00-26.57 1378.55-27.12L1378.55-27.12L1378.55-27.12Q1379.10-27.67 1380.28-29.46L1380.28-29.46L1388.69-42.30L1388.69-42.30Q1389.11-42.99 1389.63-43.23L1389.63-43.23L1389.63-43.23Q1390.14-43.47 1390.70-43.47L1390.70-43.47L1391.87-43.47L1391.87-43.47Q1392.83-43.47 1393.28-42.95L1393.28-42.95L1393.28-42.95Q1393.73-42.44 1393.73-41.33L1393.73-41.33L1393.73-6.21L1393.04-6.21L1393.04-41.33L1393.04-41.33Q1393.04-41.88 1392.80-42.33L1392.80-42.33L1392.80-42.33Q1392.56-42.78 1391.87-42.78L1391.87-42.78L1390.83-42.78L1390.83-42.78Q1390.35-42.78 1390.01-42.64L1390.01-42.64L1390.01-42.64Q1389.66-42.50 1389.25-41.81L1389.25-41.81L1380.83-29.12L1380.83-29.12Q1379.59-27.26 1378.93-26.57L1378.93-26.57L1378.93-26.57Q1378.28-25.88 1376.76-25.88L1376.76-25.88L1376.76-25.88Q1375.24-25.88 1374.58-26.57L1374.58-26.57L1374.58-26.57Q1373.93-27.26 1372.69-29.12L1372.69-29.12L1364.27-41.81L1364.27-41.81Q1363.85-42.50 1363.47-42.64L1363.47-42.64L1363.47-42.64Q1363.10-42.78 1362.61-42.78L1362.61-42.78L1361.58-42.78L1361.58-42.78Q1360.89-42.78 1360.68-42.33L1360.68-42.33L1360.68-42.33Q1360.47-41.88 1360.47-41.33L1360.47-41.33L1360.47-6.21L1359.78-6.21L1359.78-41.33L1359.78-41.33Q1359.78-42.44 1360.23-42.95L1360.23-42.95L1360.23-42.95Q1360.68-43.47 1361.58-43.47L1361.58-43.47L1362.75-43.47L1362.75-43.47Q1363.30-43.47 1363.85-43.23L1363.85-43.23L1363.85-43.23Q1364.41-42.99 1364.82-42.30L1364.82-42.30L1373.24-29.46L1373.24-29.46Q1374.41-27.67 1374.96-27.12L1374.96-27.12L1374.96-27.12Q1375.52-26.57 1376.76-26.57ZM1354.95 0L1365.23 0L1365.23 0Q1366.55 0 1367.13-0.59L1367.13-0.59L1367.13-0.59Q1367.72-1.17 1367.72-2.48L1367.72-2.48L1367.72-26.77L1371.79-19.25L1371.79-19.25Q1372.41-18.08 1373.27-17.56L1373.27-17.56L1373.27-17.56Q1374.14-17.04 1375.45-17.04L1375.45-17.04L1378.21-17.04L1378.21-17.04Q1379.52-17.04 1380.38-17.56L1380.38-17.56L1380.38-17.56Q1381.24-18.08 1381.86-19.25L1381.86-19.25L1385.93-26.77L1385.93-2.48L1385.93-2.48Q1385.93-1.17 1386.52-0.59L1386.52-0.59L1386.52-0.59Q1387.11 0 1388.42 0L1388.42 0L1399.04 0L1399.04 0Q1400.36 0 1400.94-0.59L1400.94-0.59L1400.94-0.59Q1401.53-1.17 1401.53-2.48L1401.53-2.48L1401.53-47.20L1401.53-47.20Q1401.53-48.51 1400.94-49.09L1400.94-49.09L1400.94-49.09Q1400.36-49.68 1399.04-49.68L1399.04-49.68L1387.87-49.68L1387.87-49.68Q1386.76-49.68 1386.04-49.20L1386.04-49.20L1386.04-49.20Q1385.31-48.71 1384.69-47.61L1384.69-47.61L1378.55-36.36L1378.55-36.36Q1378.21-35.74 1377.96-35.47L1377.96-35.47L1377.96-35.47Q1377.72-35.19 1377.31-35.19L1377.31-35.19L1376.69-35.19L1376.69-35.19Q1376.27-35.19 1376.03-35.47L1376.03-35.47L1376.03-35.47Q1375.79-35.74 1375.45-36.36L1375.45-36.36L1369.24-47.61L1369.24-47.61Q1368.62-48.71 1367.89-49.20L1367.89-49.20L1367.89-49.20Q1367.17-49.68 1366.06-49.68L1366.06-49.68L1354.95-49.68L1354.95-49.68Q1353.64-49.68 1353.06-49.09L1353.06-49.09L1353.06-49.09Q1352.47-48.51 1352.47-47.20L1352.47-47.20L1352.47-2.48L1352.47-2.48Q1352.47-1.17 1353.06-0.59L1353.06-0.59L1353.06-0.59Q1353.64 0 1354.95 0L1354.95 0ZM1365.23 0.69L1365.23 0.69L1354.95 0.69L1354.95 0.69Q1353.30 0.69 1352.54-0.07L1352.54-0.07L1352.54-0.07Q1351.78-0.83 1351.78-2.48L1351.78-2.48L1351.78-47.20L1351.78-47.20Q1351.78-48.85 1352.54-49.61L1352.54-49.61L1352.54-49.61Q1353.30-50.37 1354.95-50.37L1354.95-50.37L1366.06-50.37L1366.06-50.37Q1367.37-50.37 1368.24-49.82L1368.24-49.82L1368.24-49.82Q1369.10-49.27 1369.86-47.96L1369.86-47.96L1376.07-36.71L1376.07-36.71Q1376.21-36.43 1376.31-36.16L1376.31-36.16L1376.31-36.16Q1376.41-35.88 1376.69-35.88L1376.69-35.88L1377.31-35.88L1377.31-35.88Q1377.59-35.88 1377.69-36.16L1377.69-36.16L1377.69-36.16Q1377.79-36.43 1377.93-36.71L1377.93-36.71L1384.07-47.96L1384.07-47.96Q1384.83-49.27 1385.69-49.82L1385.69-49.82L1385.69-49.82Q1386.56-50.37 1387.87-50.37L1387.87-50.37L1399.04-50.37L1399.04-50.37Q1400.70-50.37 1401.46-49.61L1401.46-49.61L1401.46-49.61Q1402.22-48.85 1402.22-47.20L1402.22-47.20L1402.22-2.48L1402.22-2.48Q1402.22-0.83 1401.46-0.07L1401.46-0.07L1401.46-0.07Q1400.70 0.69 1399.04 0.69L1399.04 0.69L1388.42 0.69L1388.42 0.69Q1386.69 0.69 1385.97-0.07L1385.97-0.07L1385.97-0.07Q1385.24-0.83 1385.24-2.48L1385.24-2.48L1385.24-24.01L1382.48-18.91L1382.48-18.91Q1381.79-17.60 1380.76-16.97L1380.76-16.97L1380.76-16.97Q1379.72-16.35 1378.21-16.35L1378.21-16.35L1375.45-16.35L1375.45-16.35Q1373.93-16.35 1372.89-16.97L1372.89-16.97L1372.89-16.97Q1371.86-17.60 1371.17-18.91L1371.17-18.91L1368.41-24.01L1368.41-2.48L1368.41-2.48Q1368.41-0.83 1367.65-0.07L1367.65-0.07L1367.65-0.07Q1366.89 0.69 1365.23 0.69ZM1453.83-36.57L1453.83-36.57L1453.83-13.04L1453.83-13.04Q1453.83-9.80 1452.93-7.07L1452.93-7.07L1452.93-7.07Q1452.04-4.35 1449.59-2.42L1449.59-2.42L1449.59-2.42Q1447.14-0.48 1442.82 0.62L1442.82 0.62L1442.82 0.62Q1438.51 1.73 1431.75 1.73L1431.75 1.73L1431.75 1.73Q1424.99 1.73 1420.68 0.62L1420.68 0.62L1420.68 0.62Q1416.36-0.48 1413.91-2.42L1413.91-2.42L1413.91-2.42Q1411.46-4.35 1410.53-7.07L1410.53-7.07L1410.53-7.07Q1409.60-9.80 1409.60-13.04L1409.60-13.04L1409.60-36.57L1409.60-36.57Q1409.60-39.81 1410.53-42.54L1410.53-42.54L1410.53-42.54Q1411.46-45.26 1413.91-47.23L1413.91-47.23L1413.91-47.23Q1416.36-49.20 1420.68-50.30L1420.68-50.30L1420.68-50.30Q1424.99-51.41 1431.75-51.41L1431.75-51.41L1431.75-51.41Q1438.51-51.41 1442.82-50.30L1442.82-50.30L1442.82-50.30Q1447.14-49.20 1449.59-47.23L1449.59-47.23L1449.59-47.23Q1452.04-45.26 1452.93-42.54L1452.93-42.54L1452.93-42.54Q1453.83-39.81 1453.83-36.57ZM1453.14-13.04L1453.14-13.04L1453.14-36.57L1453.14-36.57Q1453.14-39.74 1452.21-42.33L1452.21-42.33L1452.21-42.33Q1451.28-44.92 1448.90-46.78L1448.90-46.78L1448.90-46.78Q1446.52-48.65 1442.34-49.68L1442.34-49.68L1442.34-49.68Q1438.17-50.72 1431.75-50.72L1431.75-50.72L1431.75-50.72Q1425.33-50.72 1421.12-49.68L1421.12-49.68L1421.12-49.68Q1416.92-48.65 1414.53-46.78L1414.53-46.78L1414.53-46.78Q1412.15-44.92 1411.22-42.33L1411.22-42.33L1411.22-42.33Q1410.29-39.74 1410.29-36.57L1410.29-36.57L1410.29-13.04L1410.29-13.04Q1410.29-9.87 1411.22-7.28L1411.22-7.28L1411.22-7.28Q1412.15-4.69 1414.53-2.86L1414.53-2.86L1414.53-2.86Q1416.92-1.04 1421.12 0L1421.12 0L1421.12 0Q1425.33 1.04 1431.75 1.04L1431.75 1.04L1431.75 1.04Q1438.17 1.04 1442.34 0L1442.34 0L1442.34 0Q1446.52-1.04 1448.90-2.86L1448.90-2.86L1448.90-2.86Q1451.28-4.69 1452.21-7.28L1452.21-7.28L1452.21-7.28Q1453.14-9.87 1453.14-13.04ZM1445.62-34.98L1445.62-14.63L1445.62-14.63Q1445.62-10.49 1442.65-7.90L1442.65-7.90L1442.65-7.90Q1439.69-5.31 1431.61-5.31L1431.61-5.31L1431.61-5.31Q1423.54-5.31 1420.64-7.90L1420.64-7.90L1420.64-7.90Q1417.74-10.49 1417.74-14.63L1417.74-14.63L1417.74-34.98L1417.74-34.98Q1417.74-39.12 1420.64-41.71L1420.64-41.71L1420.64-41.71Q1423.54-44.30 1431.61-44.30L1431.61-44.30L1431.61-44.30Q1439.69-44.30 1442.65-41.71L1442.65-41.71L1442.65-41.71Q1445.62-39.12 1445.62-34.98L1445.62-34.98ZM1418.43-34.98L1418.43-14.63L1418.43-14.63Q1418.43-10.76 1421.19-8.38L1421.19-8.38L1421.19-8.38Q1423.95-6.00 1431.61-6.00L1431.61-6.00L1431.61-6.00Q1439.27-6.00 1442.10-8.38L1442.10-8.38L1442.10-8.38Q1444.93-10.76 1444.93-14.63L1444.93-14.63L1444.93-34.98L1444.93-34.98Q1444.93-38.85 1442.10-41.23L1442.10-41.23L1442.10-41.23Q1439.27-43.61 1431.61-43.61L1431.61-43.61L1431.61-43.61Q1423.95-43.61 1421.19-41.23L1421.19-41.23L1421.19-41.23Q1418.43-38.85 1418.43-34.98L1418.43-34.98ZM1425.95-15.53L1425.95-15.53L1425.95-34.09L1425.95-34.09Q1425.95-35.40 1426.99-36.33L1426.99-36.33L1426.99-36.33Q1428.02-37.26 1431.75-37.26L1431.75-37.26L1431.75-37.26Q1435.48-37.26 1436.51-36.33L1436.51-36.33L1436.51-36.33Q1437.55-35.40 1437.55-34.09L1437.55-34.09L1437.55-15.53L1437.55-15.53Q1437.55-14.15 1436.51-13.21L1436.51-13.21L1436.51-13.21Q1435.48-12.28 1431.75-12.28L1431.75-12.28L1431.75-12.28Q1428.02-12.28 1426.99-13.21L1426.99-13.21L1426.99-13.21Q1425.95-14.15 1425.95-15.53ZM1426.64-34.09L1426.64-34.09L1426.64-15.53L1426.64-15.53Q1426.64-14.28 1427.71-13.63L1427.71-13.63L1427.71-13.63Q1428.78-12.97 1431.75-12.97L1431.75-12.97L1431.75-12.97Q1434.72-12.97 1435.79-13.63L1435.79-13.63L1435.79-13.63Q1436.86-14.28 1436.86-15.53L1436.86-15.53L1436.86-34.09L1436.86-34.09Q1436.86-35.26 1435.79-35.91L1435.79-35.91L1435.79-35.91Q1434.72-36.57 1431.75-36.57L1431.75-36.57L1431.75-36.57Q1428.85-36.57 1427.75-35.91L1427.75-35.91L1427.75-35.91Q1426.64-35.26 1426.64-34.09ZM1505.30-35.60L1505.30-14.08L1505.30-14.08Q1505.30-6.62 1500.99-2.97L1500.99-2.97L1500.99-2.97Q1496.68 0.69 1487.64 0.69L1487.64 0.69L1464.39 0.69L1464.39 0.69Q1462.73 0.69 1461.97-0.07L1461.97-0.07L1461.97-0.07Q1461.21-0.83 1461.21-2.48L1461.21-2.48L1461.21-47.20L1461.21-47.20Q1461.21-48.85 1461.97-49.61L1461.97-49.61L1461.97-49.61Q1462.73-50.37 1464.39-50.37L1464.39-50.37L1487.64-50.37L1487.64-50.37Q1496.68-50.37 1500.99-46.71L1500.99-46.71L1500.99-46.71Q1505.30-43.06 1505.30-35.60L1505.30-35.60ZM1464.39 0L1487.64 0L1487.64 0Q1496.27 0 1500.44-3.45L1500.44-3.45L1500.44-3.45Q1504.61-6.90 1504.61-14.08L1504.61-14.08L1504.61-35.60L1504.61-35.60Q1504.61-42.78 1500.44-46.23L1500.44-46.23L1500.44-46.23Q1496.27-49.68 1487.64-49.68L1487.64-49.68L1464.39-49.68L1464.39-49.68Q1463.08-49.68 1462.49-49.09L1462.49-49.09L1462.49-49.09Q1461.90-48.51 1461.90-47.20L1461.90-47.20L1461.90-2.48L1461.90-2.48Q1461.90-1.17 1462.49-0.59L1462.49-0.59L1462.49-0.59Q1463.08 0 1464.39 0L1464.39 0ZM1486.12-6.21L1469.42-6.21L1469.42-43.47L1486.12-43.47L1486.12-43.47Q1489.64-43.47 1491.81-42.71L1491.81-42.71L1491.81-42.71Q1493.99-41.95 1495.16-40.68L1495.16-40.68L1495.16-40.68Q1496.33-39.40 1496.75-37.64L1496.75-37.64L1496.75-37.64Q1497.16-35.88 1497.16-33.88L1497.16-33.88L1497.16-15.59L1497.16-15.59Q1497.16-13.59 1496.78-11.87L1496.78-11.87L1496.78-11.87Q1496.40-10.14 1495.23-8.90L1495.23-8.90L1495.23-8.90Q1494.06-7.66 1491.85-6.93L1491.85-6.93L1491.85-6.93Q1489.64-6.21 1486.12-6.21L1486.12-6.21ZM1486.12-42.78L1486.12-42.78L1470.11-42.78L1470.11-6.90L1486.12-6.90L1486.12-6.90Q1489.43-6.90 1491.47-7.56L1491.47-7.56L1491.47-7.56Q1493.51-8.21 1494.61-9.35L1494.61-9.35L1494.61-9.35Q1495.71-10.49 1496.09-12.11L1496.09-12.11L1496.09-12.11Q1496.47-13.73 1496.47-15.59L1496.47-15.59L1496.47-33.88L1496.47-33.88Q1496.47-35.74 1496.06-37.40L1496.06-37.40L1496.06-37.40Q1495.64-39.05 1494.54-40.23L1494.54-40.23L1494.54-40.23Q1493.44-41.40 1491.40-42.09L1491.40-42.09L1491.40-42.09Q1489.37-42.78 1486.12-42.78ZM1477.57-13.04L1477.57-36.50L1485.78-36.50L1485.78-36.50Q1487.43-36.50 1488.23-35.71L1488.23-35.71L1488.23-35.71Q1489.02-34.91 1489.02-33.19L1489.02-33.19L1489.02-16.42L1489.02-16.42Q1489.02-14.70 1488.23-13.87L1488.23-13.87L1488.23-13.87Q1487.43-13.04 1485.78-13.04L1485.78-13.04L1477.57-13.04ZM1485.78-35.81L1485.78-35.81L1478.26-35.81L1478.26-13.73L1485.78-13.73L1485.78-13.73Q1487.09-13.73 1487.71-14.39L1487.71-14.39L1487.71-14.39Q1488.33-15.04 1488.33-16.42L1488.33-16.42L1488.33-33.19L1488.33-33.19Q1488.33-34.50 1487.71-35.16L1487.71-35.16L1487.71-35.16Q1487.09-35.81 1485.78-35.81ZM1547.88 0.69L1515.86 0.69L1515.86 0.69Q1514.21 0.69 1513.45-0.07L1513.45-0.07L1513.45-0.07Q1512.69-0.83 1512.69-2.48L1512.69-2.48L1512.69-47.20L1512.69-47.20Q1512.69-48.85 1513.45-49.61L1513.45-49.61L1513.45-49.61Q1514.21-50.37 1515.86-50.37L1515.86-50.37L1547.88-50.37L1547.88-50.37Q1549.53-50.37 1550.29-49.61L1550.29-49.61L1550.29-49.61Q1551.05-48.85 1551.05-47.20L1551.05-47.20L1551.05-39.12L1551.05-39.12Q1551.05-37.47 1550.29-36.71L1550.29-36.71L1550.29-36.71Q1549.53-35.95 1547.88-35.95L1547.88-35.95L1529.52-35.95L1529.52-32.02L1542.29-32.02L1542.29-32.02Q1543.94-32.02 1544.70-31.26L1544.70-31.26L1544.70-31.26Q1545.46-30.50 1545.46-28.84L1545.46-28.84L1545.46-21.46L1545.46-21.46Q1545.46-19.80 1544.70-19.04L1544.70-19.04L1544.70-19.04Q1543.94-18.29 1542.29-18.29L1542.29-18.29L1529.52-18.29L1529.52-13.73L1547.88-13.73L1547.88-13.73Q1549.53-13.73 1550.29-12.97L1550.29-12.97L1550.29-12.97Q1551.05-12.21 1551.05-10.56L1551.05-10.56L1551.05-2.48L1551.05-2.48Q1551.05-0.83 1550.29-0.07L1550.29-0.07L1550.29-0.07Q1549.53 0.69 1547.88 0.69L1547.88 0.69ZM1515.86 0L1547.88 0L1547.88 0Q1549.19 0 1549.77-0.59L1549.77-0.59L1549.77-0.59Q1550.36-1.17 1550.36-2.48L1550.36-2.48L1550.36-10.56L1550.36-10.56Q1550.36-11.87 1549.77-12.45L1549.77-12.45L1549.77-12.45Q1549.19-13.04 1547.88-13.04L1547.88-13.04L1528.83-13.04L1528.83-18.98L1542.29-18.98L1542.29-18.98Q1543.60-18.98 1544.19-19.56L1544.19-19.56L1544.19-19.56Q1544.77-20.15 1544.77-21.46L1544.77-21.46L1544.77-28.84L1544.77-28.84Q1544.77-30.15 1544.19-30.74L1544.19-30.74L1544.19-30.74Q1543.60-31.33 1542.29-31.33L1542.29-31.33L1528.83-31.33L1528.83-36.64L1547.88-36.64L1547.88-36.64Q1549.19-36.64 1549.77-37.23L1549.77-37.23L1549.77-37.23Q1550.36-37.81 1550.36-39.12L1550.36-39.12L1550.36-47.20L1550.36-47.20Q1550.36-48.51 1549.77-49.09L1549.77-49.09L1549.77-49.09Q1549.19-49.68 1547.88-49.68L1547.88-49.68L1515.86-49.68L1515.86-49.68Q1514.55-49.68 1513.96-49.09L1513.96-49.09L1513.96-49.09Q1513.38-48.51 1513.38-47.20L1513.38-47.20L1513.38-2.48L1513.38-2.48Q1513.38-1.17 1513.96-0.59L1513.96-0.59L1513.96-0.59Q1514.55 0 1515.86 0L1515.86 0ZM1521.59-6.90L1544.15-6.90L1544.15-6.21L1520.90-6.21L1520.90-43.47L1544.15-43.47L1544.15-42.78L1521.59-42.78L1521.59-25.46L1538.56-25.46L1538.56-24.77L1521.59-24.77L1521.59-6.90Z" fill="url(#editing-outline-gradient)"></path></g></g><style>text {
  font-size: 64px;
  font-family: Arial Black;
  dominant-baseline: central;
  text-anchor: middle;
}</style></svg>